<svg id="Layer_1" data-name="Layer 1" xmlns="http://www.w3.org/2000/svg" viewBox="0 0 283.46 249.26"><defs><style>.cls-1{fill:#fcaf17;}</style></defs><path class="cls-1" d="M267.23,89.07c1.18-1.37,3-2.13,4.13-3.5s2.13-3,3.67-4.12a54.15,54.15,0,0,0,4.49-8.34c.41-1,1.14-1.91,1.08-3-5.07,1.66-10,3.43-15.26,4.93,1.67-2.17,3.57-4.16,5.11-6.37.52-.73,1.25-1.39,1.71-2.15,1.62-2.66,2.54-5.85,3.86-9A35.4,35.4,0,0,0,278.26,47c-.29-.09-.55.29-.72.45-3.87,3.79-8.14,7.7-12.64,10.4,1.86-5.48,2.29-12.82,1.88-19.28A58.91,58.91,0,0,0,265,29c-.12-.46.09-1.22-.54-1.43-.68.9-.58,2.37-1,3.58-.32,1-.92,1.94-1.25,3-1.06,3.18-2.1,6.53-3.69,8.87a28.14,28.14,0,0,0,1.8-9.86c-.09-1.5.34-3.27.18-4.75-.06-.57-.46-1.07-.54-1.62s.11-.85.09-1.26c-.09-2-1.16-3.79-1.26-5.74-2.43-5.25-5.22-10.14-10.22-12.82.72,2.22,1.59,3.81,1.7,6.36a49.48,49.48,0,0,1,0,5,36.42,36.42,0,0,1-.54,6.1,54.15,54.15,0,0,1-2.68,8,18.27,18.27,0,0,1-1.71,3.68c-.72,1.07-1.38,2.14-2.15,3.23a117.6,117.6,0,0,1-8.53,10.31c-.43.48-.94.78-1.43,1.26-.88.84-1.54,1.88-2.42,2.78-1.78,1.81-3.53,3.56-5.12,5.47a8.88,8.88,0,0,1-2.69,2.6,8.86,8.86,0,0,0-1.61-4.21c-1.26,1.94-1.78,4.75-2.69,7-.42-2.09-1-4.06-2.24-5.29-1.16,2.65-2.08,5.52-3.68,7.72,0-.76-.3-1.32-.36-2.07-.7.2-.94.93-1.44,1.35A62.94,62.94,0,0,1,194.3,76.69c-2.78,2-3.83,5.46-4.22,9.78s1.28,6,2.7,8.52c1.25,2.26,3.35,3.6,2.78,7-1.26,1.22-3.62,3.14-6.37,2.42-.58-.15-2.3-1.27-2.42-2a4.2,4.2,0,0,1,.53-1.8,15.44,15.44,0,0,0,.81-4.39,31.1,31.1,0,0,0-.72-8,13.11,13.11,0,0,1-4.66,3.41c-.91.35-2.24.85-3.32.36,1.44-1.94,2.94-3.82,3.41-6.73a4,4,0,0,0,.8-1.25c-3.55,1.32-8.84,0-8.52-4a11.47,11.47,0,0,0,6.73-.9c-1.76-.57-2.46-2.2-3.41-3.58,0-.67-.38-1-.54-1.71-1.31-5.82,2.62-8,7.18-8.79,1.81-.29,3.69-.72,5.2-.8,2.3-.14,4.19.2,6.28,0,2.28-.24,5-1.64,4.22-4,2.2.53,4.93,2.12,7.62,1.88,5.77-.52,8.1-5.74,8-12.2-.87,3-2.3,5.95-4.49,7.63-3.83,2.93-9.62-.69-12.83-2.42a4.43,4.43,0,0,1,2.15-.9c2.84-.36,5.06,2,6.19,3.85,2.23,0,2.94-1.49,4.49-2.15,1.53-1.8,2.93-4.9,2.07-7.8-.24-.78-.87-1.32-.9-2.16-1.58-2.81-4.86-3.92-9.24-3.94-1.45-.77-2.74-2.43-4.49-2.34-1.89-1.12-2.67-3.36-4.57-4.48-1.76.29-2.67-.24-4-.54-1.3-1.19-2.89-1.76-3.76-3.4-1-1.85-1.33-4.13-2.52-5.92A12.88,12.88,0,0,0,182,34.17c-3.39-1.48-7.94-.38-10.76.54-.47.15-1.18.13-1.35.63,1.25.76,3.43.08,4.84.54A2.36,2.36,0,0,1,176.27,38c-2,.18-4,.58-5.74.09-.52-.14-1.07-.53-1.62-.72s-1.22-.32-1.7-.53c-2.28-1-3.73-3.11-5.29-4.85-1.58,1.65-2.08,6.3-1,8.7-3.14,1.41-5,4.14-6.64,7-1.9-.49-2.61-2.08-4.13-2.87a26.72,26.72,0,0,0,.28,8c.92,1.71,2.11,3.16,3.13,4.76A17.85,17.85,0,0,0,147.92,66a10.12,10.12,0,0,1-4.57,3.5,14.2,14.2,0,0,0,2.42,3c.06.05.9.31.63.54.4.33-.41.94-.72,1.43-1.11,1.78-2.05,4-3.59,5a20.2,20.2,0,0,1-4.57-7,10.19,10.19,0,0,0,4.21-2.6,9.68,9.68,0,0,1-3.68-1.35c-.21-.14-.58-.24-.71-.36a8.44,8.44,0,0,1-2.42-3.94c-1.2-2.95-3.37-5.17-4.67-7.81,2.72-2.42,3.92-7.59,3.77-12-.86.56-.9,1.14-1.88,2.07-1.42.61-2.63,1.91-4.13,2.15a9.42,9.42,0,0,0-5.47-8.8c.87-2.29,1-7.09-1.44-7.71-1.31,3-5.24,5.82-9.24,6.28-1.21.14-3.14.21-3.58-.72a4.26,4.26,0,0,1,1.88-2.42c1.31-.73,2.64.33,4.3.18-1.18-.3-1.64-1.49-2.87-2.06-.44-.21-1.07-.17-1.61-.36-.3-.11-.51-.36-.81-.45-2.65-.78-5.58.06-8.07.27a17.39,17.39,0,0,0-.72-7.8c-1.69,3.48-3.69,7.37-6.82,9.32-1.31.83-2.72.62-4.21,1.17a15,15,0,0,0-2.6,1.7c-.79.58-1.6,1.54-2.33,1.71-.42.09-.85-.08-1.26,0-1.71.31-3.09,2.43-4.76,2.69a6.65,6.65,0,0,0-5.55,1.52,9.85,9.85,0,0,0-3.42,6.28c.31,2.28.27,4.08,1.53,5.47a7.54,7.54,0,0,0,5,2.61c.93-1.37,2.24-3.52,4-4.31,1.48-.68,3.92-.28,4.58,1.07-3.6.87-5.31,5.27-10.05,4.13a11.6,11.6,0,0,1-4.13-2.6,11.56,11.56,0,0,1-1.52-2.78,30.93,30.93,0,0,1-2.07-4.66c-.15-.61.1-1.47-.27-2a14.77,14.77,0,0,0,1.26,11,10.71,10.71,0,0,0,2.6,3.14c.25.17.68.17,1,.36s.47.5.72.62c3.35,1.59,8.19.68,11-.89a1.45,1.45,0,0,0-.09.89,4.81,4.81,0,0,0,2.6,1.71c.34.05.74-.12,1.08-.09,1.39.09,2.94.11,4.58.18,1.18,0,2.5.34,3.76.35,1.67,0,2.94-.21,4.39.28,3.07,1,5.88,2.76,7.18,5.38.9,1.81,0,4.06-.53,5.47-1.06,2.56-2.78,4.11-3.86,6.73a59.13,59.13,0,0,0,7.53-2c-1.16,3.6-4.16,5.36-8,6.28.24,2.33,1.79,3.36,2.33,5.38-2.52.48-4.85-.53-6.82-1.16-.25-.44-.82-.61-.81-1.08-2.39,3.74-1.75,10.11-.71,14.53-.92,1.14-3.55,1.47-5.39.54a8.75,8.75,0,0,1-1.25-1c-1-.86-1.41-1-1.26-2.87.12-1.44,1.21-2.67,1.89-3.59a13.39,13.39,0,0,0,1-1.53c.6-1.06,1.42-2,1.89-3,.93-2,.8-4.9.53-6.73-.61-4.22-1.27-6.61-3.94-8.52-3.69-1.93-7.61-3.35-10.77-5.74-1-.77-1.92-1.68-3-2.42-1.6-1.13-3-2.54-4.39-3.68a11.45,11.45,0,0,1-.45,2.07c-1.51-2.26-2.36-5.18-3.68-7.63-1.28,1.21-1.66,3.3-2.24,5.2-.75-2.36-1.4-5-2.6-7a10.88,10.88,0,0,0-1.71,4.21c-2-1.46-3.2-3.72-5.11-5.47a30.28,30.28,0,0,1-2.69-2.51c-.8-.92-1.44-2-2.33-2.87s-1.76-1.71-2.61-2.69c-2.48-2.87-5.14-5.74-7.35-8.79a30.52,30.52,0,0,1-3.86-6.91,54.56,54.56,0,0,1-2.69-8.07,38.63,38.63,0,0,1-.54-6.19c-.12-2.77-.17-6.76.81-9.06.31-.72,1-1.32.81-2.25-4.88,2.77-7.73,7.58-10.14,12.83-.12,2.12-1.16,3.63-1.25,5.74A11.47,11.47,0,0,1,23.51,27c-.05.32-.49,1.05-.54,1.52a37.43,37.43,0,0,0,.27,6.37,34.38,34.38,0,0,0,1.25,7c.09.29,0,0,.27.72.69,1.84-1-1.56-1.25-2.16a88.81,88.81,0,0,1-4-11.12c-.16-.62-.11-1.45-.63-1.61-.53.36-.32,1-.45,1.52a52.69,52.69,0,0,0-1.79,9.69c-.33,6.5,0,13.8,1.88,19.19A85.21,85.21,0,0,1,5.92,47.72c-.19-.19-.36-.66-.71-.54A34.1,34.1,0,0,0,7.45,57.59c1.31,3.13,2.22,6.37,3.86,9.06.47.76,1.18,1.4,1.7,2.15,1.63,2.32,3.53,4.19,5,6.37C12.87,73.63,7.9,71.91,2.87,70.24A22.6,22.6,0,0,0,5.3,76.15a49.43,49.43,0,0,0,3.14,5.48c1.5,1.05,2.45,2.69,3.67,4.12s3.06,2.15,4,3.5c-3.7.09-7.06.71-10.4,1-1.81.15-4-.33-5.74.27-.08.26.53.29.26.45s.44,0,.45.18A42.25,42.25,0,0,0,11.48,100c.69.38,1.53.64,2.25,1.07a15.77,15.77,0,0,0,2.15,1.26c1.43.27,3,1.42,4.13,1.89a85.19,85.19,0,0,1-14.62-.72c1.17,1.57,2.59,3,3.85,4.57a27.53,27.53,0,0,0,4.22,4.48,41.28,41.28,0,0,0,11.39,5.93,3.58,3.58,0,0,1,1,.17,9.12,9.12,0,0,0-2.07,1.18c-5.33,3.05-10.59,6.44-15.69,9.59h.81c4.9,1.93,11.35,2.43,17.85,2.06-1.38,1.9-2.63,3.91-4.13,5.74s-3.33,3.38-4.58,5.2c5.94,0,10.94.25,15.7-.72a27,27,0,0,1-3.68,4.76c-.19,1.39-1.32,1.85-1.7,3.05,6.3.66,12.22-.16,17.76-.81-1.34,3.33-2.81,6.52-4.3,9.69,6.93-.5,13.58-2.16,18-4.58a46.59,46.59,0,0,0-3.49,6.11,28.57,28.57,0,0,0,19.1-4.58,46.59,46.59,0,0,0-.8,5.29,25.52,25.52,0,0,0,3.23-.71c.71.35.78,1.37.89,2.15a16.09,16.09,0,0,1,.54,2.6,10.23,10.23,0,0,1-.9,2.33,7.4,7.4,0,0,0-.26,4.76c.13.36.52.61.62,1.07a28.28,28.28,0,0,0,.18,2.87,20.35,20.35,0,0,1-5-3.4c-.1,5.9,3.14,8.46,6.9,10.49-.85,1.54-2.06,2.93-4.12,2.24-2.23-.74-4.46-3.34-5.65-4.84,1.25-2.05-.28-4.16-1.52-5.29-1.49-.61-4.12-2.3-5.57-.54-2.6-2.19-7.76-2.49-10.76-1.34-1.09.41-2.22.88-2.61,1.79a4.51,4.51,0,0,1,3.33,1.35,18.6,18.6,0,0,0-6.2,5.37c.32-2,.91-4,1-5.65-1.33-.54-2.11,1.38-3.05,1.53a16.61,16.61,0,0,1,4.58-5c.31-.25.87-.46.81-.9-1.64-.06-3.29-.49-4.85-.27a19.54,19.54,0,0,0-2.87.89,8.6,8.6,0,0,0-5.56,4.58A3.39,3.39,0,0,0,34.9,179a15.63,15.63,0,0,0-.27,1.71c-.09.33-.38.57-.45.89-.36,1.54.07,3.12.09,4.31a4.37,4.37,0,0,0-.09,4.12c.27.52.9.85,1,1.35.23,1.27-.11,2.48.19,3.59.68,2.53,2.79,3.56,5.11,4.49.56,2.82,1.67,5.93,4.94,5.46.61,2.2,3,2.86,5.47,3a4.62,4.62,0,0,0,3.23,1.25,12.62,12.62,0,0,0,3.32-1.25c.74-.49.73-1.27,1.16-1.89a6,6,0,0,1,2.07-1.34c1.48-.73,3-1,4.12-1.62.26-.13,0-.29.27-.45a62.37,62.37,0,0,1,9.69-2.15A2.4,2.4,0,0,1,77,200a11.07,11.07,0,0,1,6.37.45,14.09,14.09,0,0,0,2.78,1.08,9.19,9.19,0,0,0,1.25-.27c1.53-.21,2.8-.28,4.4-.63-3.7,2.26-6,6.63-6.82,11.66-.5,3.07.74,5.88,1.44,8.61a24.77,24.77,0,0,0,5,5.3c.2,4.14,2.72,6.31,5.56,7.53a17.1,17.1,0,0,0,3.59,7.09,26.27,26.27,0,0,0,5.65,5.11,28.92,28.92,0,0,0,6.82,2.78,14,14,0,0,0,3.23.36,22.11,22.11,0,0,0,7-.9,25.07,25.07,0,0,0,5.84-2.78,27.41,27.41,0,0,0,2.69-1.62c.75-.55,1.94-1.32,2-2.23a20,20,0,0,1-25.21-5.84,13,13,0,0,0,2.79-1.07,4.66,4.66,0,0,1,1,1.43c1.52.69,2.14,2.75,4.22,3.23s4.26-.62,6.19,0c.51.16.92.55,1.43.72a7.11,7.11,0,0,0,6.37-.9,12.93,12.93,0,0,0,3.59-2.78c1,4.8,3.83,7.77,6.19,11.21,2.36-3.41,5-6.5,6.19-11.12.73,1.19,2.17,2,3.59,2.78a6.52,6.52,0,0,0,3.31,1.35,9.8,9.8,0,0,0,3.05-.45c.49-.16.94-.57,1.44-.72,2-.59,4.08.47,6.1,0s2.68-2.53,4.22-3.23a3.15,3.15,0,0,1,1.07-1.43c.7.59,1.88.69,2.69,1.16a20.88,20.88,0,0,1-6.19,5.3,20.61,20.61,0,0,1-8.43,2.69,25,25,0,0,1-10.67-2.25c.09.9,1,1.36,1.7,1.89a18.24,18.24,0,0,0,2.15,1.43c1.54.84,3,1.9,4.67,2.6A21.76,21.76,0,0,0,161,249a20.84,20.84,0,0,0,5.56.09,16.64,16.64,0,0,0,2-.72c.72-.24,1.59-.29,2.24-.54a21.78,21.78,0,0,0,3.5-1.79,26,26,0,0,0,5.65-5.11,16.75,16.75,0,0,0,3.59-7.18,8,8,0,0,0,5.56-7.53,20.39,20.39,0,0,0,3.49-3.32,6.91,6.91,0,0,0,1.53-2.07c.93-2.51,1.88-6,1.44-8.52a20.87,20.87,0,0,0-2.34-6.91,19,19,0,0,0-4.39-4.66,42,42,0,0,0,4.31.63,8,8,0,0,0,1.34.27,15.39,15.39,0,0,0,2.69-1.08,11.12,11.12,0,0,1,6.37-.45c1-.45,1.6.17,2.33.36.94.25,2,.23,3,.45a51.22,51.22,0,0,1,6.64,1.79c.19.14-.1.26.18.36,2.12,1,4.71,1.51,6.28,3.06.7,2.75,5.56,4,7.62,1.78,2.5,0,4.81-.87,5.57-2.95,3.19.4,4.33-2.7,4.83-5.56,3.59-.85,5.86-3.64,5.3-8.08,1.13-1,2-3.91.9-5.47a16.81,16.81,0,0,0,.18-3.32,6.84,6.84,0,0,0-.54-1.88c-.37-1.39-.51-2.46-1.35-3.14a3.8,3.8,0,0,0-1.88-.81c-1-2.64-3.65-3.91-6.55-4.75a16.56,16.56,0,0,0-1.88-.63,30.93,30.93,0,0,0-4.85.27c1.61,1.86,4.38,3.34,5.47,6-1-.44-1.7-2.08-3.05-1.62,0,1.67.82,3.83.9,5.65-.27-1-1.12-1.38-1.61-2.15-.78-.18-1.06-1-1.62-1.43-.88-.72-2-1.1-2.87-1.88.95-.61,2.09-1.48,3.32-1.26-.08-.47-.66-.94-1.07-1.17a12.51,12.51,0,0,0-12.38.72c-1.38-1.81-4,0-5.48.54-1.28,1.15-2.75,3.27-1.52,5.38-1.29,1.45-3.44,4-5.74,4.75-2.14.67-3.24-.78-4-2.33,3.87-1.89,7-4.57,6.9-10.4-1.54,1.17-3.14,2.78-5,3.31a15.45,15.45,0,0,0,.18-2.87c1.37-1.95.95-4,.36-5.83a12.39,12.39,0,0,1-.9-2.33,15,15,0,0,1,.54-2.42c.14-.9.35-1.6.54-2.52-3.79-.15-6.93.51-10-.8a17.39,17.39,0,0,0,1.34-3.68,29,29,0,0,1-8.79,1.26,7.69,7.69,0,0,1-3.77-1.44c-1.76-1.39-2.94-3.73-3.85-5.83a9.3,9.3,0,0,0,.89-2.51c.16.22.15.13.36,0,.48-.77.69-2.27,2.07-1.62.49,1.19,1.69,2,1.7,3.41a10.37,10.37,0,0,0,4.76,4c2.14.73,4.51,1.25,6.72,2,.09-1.49-.49-2.24-.36-3.41a15.93,15.93,0,0,0,4.58,5.29,15.49,15.49,0,0,0,1.7,1.52,15.09,15.09,0,0,0,3,1c1.31.38,3.11,1,4.13.45.74.2,1.19.71,2.06.81a31.61,31.61,0,0,0-.71-5.12c4.47,3.33,11.16,5.4,19.1,4.66a61,61,0,0,0-3.5-6.19c4.57,2.68,11.08,4.09,18,4.67-1.48-3.21-3-6.37-4.3-9.78a71.25,71.25,0,0,0,13.9,1.08c1.2-.05,2.81.21,3.86-.27-.45-1.1-1.51-1.61-1.71-3a21.1,21.1,0,0,1-3.58-4.75c4.71,1,9.71.7,15.6.71-1.22-1.79-3.07-3.36-4.57-5.2a60.69,60.69,0,0,1-4-5.74c5,.15,9.77.21,14.18-.89a41,41,0,0,1,4.3-1.17c-4.25-2.84-9-5.57-13.37-8.25-1.47-.9-3-1.83-4.3-2.6a26.31,26.31,0,0,0,9.6-4.22,28.06,28.06,0,0,0,4.3-3c1.25-1.19,2.09-2.76,3.23-4,.89-1,1.77-2,2.6-2.86.24-.26.76-.44.63-.9a70.29,70.29,0,0,1-14.53.62c.64-.3,1.4-.66,2.15-1a5.64,5.64,0,0,1,2.16-.72c2.61-1.86,5.59-3.09,8.16-4.93A43.41,43.41,0,0,0,282.75,91c.66-.12.36-.2.71-.72C277.28,90.07,272.91,89.41,267.23,89.07Zm4.57,3.14a93,93,0,0,1-30.68,6.73,58.79,58.79,0,0,1-8.25-.36c.1-.74.38-1.29.45-2.06A66,66,0,0,0,248,95.44c4.29-.94,8.48-1.55,12.74-3.23,1.13-.45,4-.09,5.65-.09S270,92.13,271.8,92.21Zm-.44-10.76c-.37,1.19-1.69,1.74-2.61,2.51s-1.51,1.55-2.42,2.24a12.6,12.6,0,0,1-2.78,1.88c-.18.43-1.65.94-2.24,1.53-3.94,1.5-8.65,3.36-12.92,4.13-2.75,1.06-6.78,1.52-10.76,1.7a51.79,51.79,0,0,1-9.33-.09c.08-1.09.39-1.94.54-3,9.66-.25,17.8-1.46,24.93-4.22.37,0,.36-.2.27.18,2.22-1.43,5.76-2.56,8.52-3.94a74.21,74.21,0,0,0,7.18-4,62.59,62.59,0,0,1,6.37-5A29.41,29.41,0,0,1,271.36,81.45Zm-45.67,35a15.9,15.9,0,0,1-3.13,1,68.1,68.1,0,0,1-6.73,1.52,11,11,0,0,1-2.51.09,30.62,30.62,0,0,1-9.78-2,30.13,30.13,0,0,0,3.77-1.08c.44-.2.71-.51,1.07-.53,1.05-.09,2.82,1.07,4.13,1.25a32,32,0,0,0,10.68-.81,34,34,0,0,0,4.75-1.43c.08,0,.07.11.09.18A4.81,4.81,0,0,1,225.69,116.43Zm1.26,2c7.22,5.17,14.82,9.37,25,11.57,1.51,2,3,4,4.39,6a72.7,72.7,0,0,1-14.26-6c-5.77-3.11-11.45-6-15.88-10.41A9.78,9.78,0,0,1,227,118.41Zm-5.38,3.67a22,22,0,0,1-7.18,1.35c-4.74.21-7.68-.91-10.94-2.06-1.56-1.49-3.92-2.19-4.49-4.67.95.35,1.91.07,3.14.36.34.08.59.4.9.54,6.41,2.76,14,2.94,21.8,1.07C223.76,119.91,222.64,120.89,221.57,122.08ZM244.8,139.4c.94,1.68,2.44,2.82,3.41,4.48a79.62,79.62,0,0,1-9.78-5c-1-.65-2.12-1.21-3.05-1.88s-1.73-1.62-2.69-2.33a63.53,63.53,0,0,1-4.84-4.3,17.93,17.93,0,0,1-1.89-2.16c-.59-.74-1.54-1.33-2.24-2.06s-.78-1.42-1.34-1.8a10.91,10.91,0,0,0,2-2.15c.08,0,.09,0,.09.09C229.24,130,237.29,134.41,244.8,139.4Zm-41.62.08a7.8,7.8,0,0,1-2.52-1.79c.67,0,1.57.6,2.43.72C203,138.86,203.24,139,203.18,139.48Zm-5.29-5.2c-.1.16-.61-.31-.9-.54a16.19,16.19,0,0,1-2.87-2.86c.73.19,1.27.58,2,.8-.88-1.57-4.68-3.41-5.3-5.65a1.91,1.91,0,0,1,.45-1.88c2.41,2.14,4.92,4.68,7.45,6.9a15.58,15.58,0,0,0,3.14,1.53,37.59,37.59,0,0,0,9.5,3.14C207.3,137.42,200.73,136.72,197.89,134.28Zm-5,2.6a20.71,20.71,0,0,1-2.42-.81c-.36-.19-.56-.6-.81-.8a9.44,9.44,0,0,1-1.07-.63c-.66-.61-.77-1.73-1.44-2.33.88-1.25,1.71-2.54,2.51-3.86,3.15,4.15,5.76,8.85,11,10.86C198.07,139.08,195.29,137.78,192.86,136.88Zm2.87,2.69c-.37.36-1.74.15-2.42,0-3.19-.66-6.33-2.56-8.7-4a21.6,21.6,0,0,1,1.88-2.51A23.11,23.11,0,0,0,195.73,139.57Zm-.62-15.78c1.12,2,2.8,3.42,4.21,5.11,2.73,2.41,7,3.24,10.76,4.67-3.71.19-7.5-1.44-10.49-3.14-.81-.47-1.71-.75-2.33-1.17-1.43-1-2.34-2.58-3.41-3.77a9.27,9.27,0,0,1,1.44.09C195.48,125.06,195.18,124.32,195.11,123.79Zm10.49,6.45a23.26,23.26,0,0,1-3.14-1.07,15.9,15.9,0,0,1-4.57-2.6c-1.12-2-2.68-3.6-3.23-6.19.07,0,.08,0,.09.09,1.07.41,2,1,3.05,1.43,2.84,1.23,5.16,3.64,8.34,4.67,1.93.62,4.12.88,6.19,1.35,1.72.38,3.78,1.26,6.1,1.25C215.44,131.32,209.61,131.08,205.6,130.24Zm5.92-3.4A20.15,20.15,0,0,1,200.76,123a31,31,0,0,0-1.17-3.41c0-.07,0-.08.1-.09a13.82,13.82,0,0,0,4,2.25c1.37.61,2.67,1.58,4.12,2.06,1,.34,2.15.47,3.23.8,2.93.92,6.11,1.57,9.06,2.7A73.94,73.94,0,0,1,211.52,126.84Zm13.73-12.65c.37-1.1,1.34-1.59,1.88-2.51.94.19,1.6.67,2.51.89A28.45,28.45,0,0,1,225.25,114.19Zm-.45-3.32a16,16,0,0,1-4,3.77,12.51,12.51,0,0,1-4.31.89,19.9,19.9,0,0,1-7.71-.44c-.08-.14.45-.82.81-1.17s1-.57,1.17-1c-1.57-.5-3-1.11-4.49-1.7,1,0,2.29-.76,3.41-.81,1.4-.06,3.27.8,5,.81a19.67,19.67,0,0,0,13.1-5.2C227.54,107.36,226.12,109.26,224.8,110.87ZM198.88,98.58c.46,0,.69.33,1.16.36a17.07,17.07,0,0,0,0,2.15c.56-.3.36-1.37.72-1.88A19.43,19.43,0,0,0,211,98c.16,0,.17.07.18.18-2.13,3.25-7.66,5.6-12.46,4C199.12,101,198.74,99.75,198.88,98.58Zm26.55-10.23c.07,0,.08,0,.09.09a34.36,34.36,0,0,1-2.61,5,13.73,13.73,0,0,1-2.51,2.42c-1.91,1.71-4.18,3.51-7.62,3.77,1-1.57,1.52-3.62,2.33-5.39A22.12,22.12,0,0,0,225.43,88.35Zm-.18-2.86c-.06-.67.55-1.42.62-2.25a7.87,7.87,0,0,0,2.34-.36C227.55,83.72,226.13,84.58,225.25,85.49Zm-11.57,14.7c3.87-.61,6.59-2.56,9.14-4.57,2.1-1.64,3.19-3.94,4.13-6.73.07-.07.25,0,.27-.18s.16,0,.18.09a24.6,24.6,0,0,1-1.88,8.7c-.75,2.06-1.32,3.53-3.05,4.58a21.08,21.08,0,0,1-8.52,3c.11-.54.77-.54.71-1.26-.33-.44-1-.18-1.52-.18-1.69,0-3.68-.28-5.48-.35.81-.74,1.78-.58,2.79-1.26.76-.52,1.36-1.46,2.06-1.7A7.18,7.18,0,0,1,213.68,100.19Zm13.45-2.33a15.78,15.78,0,0,0,1.8.45,24.58,24.58,0,0,1-2.88,1.88C226.23,99.59,227,98.81,227.13,97.86Zm-26.28.81a4.37,4.37,0,0,1-.09-1.79c4.29.9,8.54-.84,11.75-2.16A14.88,14.88,0,0,1,200.85,98.67Zm10.41,6.73c-4,2.31-11.58,1.2-12.75-2.69v-.27C202.07,104.11,206.75,104.67,211.26,105.4Zm-1,1.88a6,6,0,0,1-4,2.42c-3.84.38-7.6-2.38-9.24-4.84.38-.16.53-.55.81-.81C200.76,106.29,205.26,109,210.27,107.28Zm15.42-2.87a24.4,24.4,0,0,1-2,2,20.67,20.67,0,0,1-6.37,3.76c-2,.55-5,.16-7.08-.27,0-.81.88-.86,1.34-1.25.87-.73,1.22-1.92,2-2.78a29.14,29.14,0,0,0,8.71-2.33c1.17-.54,2.23-1.36,3.4-2,1.36-.71,2.84-1.07,4-1.79.14-.08.15-.21.45-.18C229.16,101.38,227.34,102.81,225.69,104.41ZM229.64,98c-.77-.15-1.5-.36-2.24-.54a13.46,13.46,0,0,0,.63-1.61,24.56,24.56,0,0,0,4.22.53A13,13,0,0,1,229.64,98Zm43-22.06a73.91,73.91,0,0,1-18.48,10.49c-3.45,1.27-7,2.84-10.94,3.59-2,.37-4,.64-6.1,1a27.59,27.59,0,0,1-6.55.44c-.3.36-1,.27-1.7.27.1-1,.09-2.05.09-3.13,8.28-.52,13.24-2.14,19.55-4.13,2.43-.77,4.79-1.79,7.27-2.78a9.49,9.49,0,0,1,2.6-.9c1.78-.77,4.59-1.65,6.9-2.51S270.29,76.84,272.61,76Zm1.26-20.46a14.55,14.55,0,0,1-1.62,4.22,43.41,43.41,0,0,1-4,7.36,30,30,0,0,1-3.85,5.11c-1.42,1.38-3,3-4.58,4.3A49.31,49.31,0,0,1,252.52,81a54.11,54.11,0,0,1-17.58,6c-2,.31-3.94,1-6,1.16a21.55,21.55,0,0,1-.09-3c9.17-1.18,13.79-3.62,20.8-7.35a53.05,53.05,0,0,0,8.08-5.29c.78-.63,1.63-1.28,2.42-1.88,1.63-1.25,2.95-2.91,4.48-4.13,2.77-3.57,6.2-6.49,8.71-10.32C273.71,56.42,273.59,56,273.87,55.52Zm-7.81,5.66c.1,0,.05.08,0,.08-2.44,2.76-4.58,5.79-7.17,8.44-.85.86-2,1.35-3,2.15a63.74,63.74,0,0,1-9.24,6.28A77.41,77.41,0,0,1,229,84.59a6.13,6.13,0,0,1,.09-1.89c.73-.07,1.29-.3,1.62-.09,6.83-1.73,12.81-4.07,17.76-7.71a75.72,75.72,0,0,0,7.17-5.38,54.78,54.78,0,0,0,6.28-6.46A10.27,10.27,0,0,0,266.06,61.18Zm-1.7-19a39.94,39.94,0,0,1-.54,8.25c-.41,2.61-.48,5.31-1.44,7.54a22.59,22.59,0,0,1-2.15,3.49C256,67.44,250.4,71.9,244,75.89A50.51,50.51,0,0,1,226,83a22.5,22.5,0,0,0,.36-3.32,62.5,62.5,0,0,0,7.81-3.5,93.89,93.89,0,0,0,19.19-14.44,41.08,41.08,0,0,0,4.93-6.28,48.69,48.69,0,0,0,4-7.44A30.66,30.66,0,0,0,264.36,42.16Zm-3.05-.27a28.05,28.05,0,0,0,1.79-4.58c-.51,5.84-3.08,10.87-5.29,15.34a17.72,17.72,0,0,1-1.26,2.25,66.75,66.75,0,0,1-10,11.48c-.52.47-1.06.9-1.62,1.34s-1,1-1.52,1.44c-1.11.86-2.39,1.59-3.59,2.42-2.43,1.66-4.89,3-7.18,4.31-2,1.16-4.2,2-6.37,3,.12-1.44.25-2.87.27-4.4a62.28,62.28,0,0,0,21.17-13.27,51.22,51.22,0,0,0,10.59-14.09C259.24,45.36,260.43,43.48,261.31,41.89ZM223.72,64.14a4.42,4.42,0,0,1,1.17-1.44c.44-.45.8-1.08,1.16-1.44s1-.64,1.53-1.07c.73-.63,1.44-1.55,2.24-2.34,1.73-1.68,3.1-3.44,4.84-5.11,7.38-7,14.92-13.71,17.05-26.19a32.88,32.88,0,0,1-1.08,10,45.75,45.75,0,0,1-5,11.93A42.34,42.34,0,0,1,242,53.28a40.75,40.75,0,0,1-3.94,4.57,75.31,75.31,0,0,1-14.53,10.86C223.67,67.37,223.3,65.34,223.72,64.14Zm-.09,5.56c.32-.61,1.87-1.32,2.69-1.8a79.67,79.67,0,0,0,12.92-9.5,42.16,42.16,0,0,0,8.07-9.78c2.28-3.66,4.55-7.45,5.38-12.47,1.16-7,1.63-17.17-.26-23.77,1.1,2,1.8,4.47,3,6.37.23,3,1.74,6.39,2,10.13a31.44,31.44,0,0,1-.18,4.58,50.82,50.82,0,0,1-2.42,12.64,40.85,40.85,0,0,1-2.16,5.48c-.4.74-1.1,1.4-1.61,2.15A17.52,17.52,0,0,1,249.56,56c-1.23,1.34-2.26,2.86-3.5,4.13s-2.45,2.61-3.77,3.77a55.2,55.2,0,0,1-6.55,4.84c-.75.48-1.4,1.14-2.15,1.61a53.83,53.83,0,0,1-6.82,3.33,38.47,38.47,0,0,1-.26-4.4c-.71,1.66-2.4,2.33-3.32,3.77A10,10,0,0,1,223.63,69.7Zm.72,7.62c0,3.56-2,4.9-3.95,6.73a16,16,0,0,1-2.15,1.88c-1.31.79-3.26,2.43-5.11,2.78a5.21,5.21,0,0,1,.36-2.15C218.33,84.76,221.34,80.65,224.35,77.32Zm-.45-3c-2.27,4.79-5.56,9.33-10.67,11.57.56-1,.05-2.55.45-3.67A27.83,27.83,0,0,0,223.9,74.36ZM213.32,70c.09-.64.82-1.34,1.25-2.34s.59-2,.9-2.6a5.82,5.82,0,0,0,.81-2,19.47,19.47,0,0,1,.54,5.74,8.09,8.09,0,0,1-.54,2.87c-.6,1.08-2.1,1.73-2.78,2.78C213.76,73.38,213.08,71.57,213.32,70Zm1.61,5.29c.09-.13,0-.32.09-.45.35-.62,1-1,1.44-1.52.18-.23.26-.66.44-.9a3.41,3.41,0,0,1,.63-.63c1.21-2.63,2.79-5.35,3.59-7.62.41,2.62-1.11,5.07-2.15,7.08C217.55,74,216,77,213.23,78.13,212.84,76.75,214.34,76.12,214.93,75.26Zm-2.24,3.94a16.32,16.32,0,0,0,3.95-2.69c2-2,4.16-4.18,5.11-7.26a3.6,3.6,0,0,1-.09,1.88c-.15.83-.17,1.77-.45,2.87s-.92,1.44-1.44,2.24a10.67,10.67,0,0,1-.89,1.62,20.44,20.44,0,0,1-3.41,2.78,7.89,7.89,0,0,1-2.06.81,4.83,4.83,0,0,0,0-1.26c-.69,0-.59.73-1,1C212.37,80.74,212.67,79.88,212.69,79.2ZM213,89.52c4.71-1.73,7.81-4.73,11.48-7.62-.4,2.34-.74,4.46-1.79,6.1a15.54,15.54,0,0,1-2.79,2.6A8.58,8.58,0,0,1,215,92.84c.07-.53.42-.78.45-1.35-1.76.25-2.43,1.58-4.31,1.71C211.88,91.87,212.35,90.54,213,89.52Zm-1.44-2.87c-.57,2.42-.8,5-2.33,6.73a8.92,8.92,0,0,1-8.25,2.33,7.45,7.45,0,0,0-.54-2.6c.74-.42,1.25-.15,2.06-.27C206.45,92.24,208.93,88.87,211.52,86.65Zm-17.58,3.86c-.94-1.85-.14-5.1.45-7.18a11.38,11.38,0,0,1,2-4.57c1.08-1.19,3.54-2.18,5.12-3a30.14,30.14,0,0,0,5-3c1.28-1,2.16-2.23,3.58-2.7,0-.1,0-.15-.08-.17s.08,0,.08,0c.52,4.39.42,11.54-3,15a11.64,11.64,0,0,1-6.19,3.23,7.85,7.85,0,0,0,5.2-.62c1.93-.81,2.86-2.21,4.31-3.14-1.26,3.17-4.15,4.7-6.46,6.82-.28.17-.55.08-.72.18-.52.86-1.93.82-3.23.89-1.59-1.74-1.28-4.66-.63-7.26,1.25-2.88,4.58-3.89,6.64-6.19a16.56,16.56,0,0,0-3.14,1.88,13.47,13.47,0,0,0-3.22,2c-.43.46-.81,1.21-1.27,1.8-.91,1.19-1.59,2.17-1.43,3.76.79,2.27,1.48,4.63,2.78,6.37,0,1.37.35,2.46.27,4a7.59,7.59,0,0,1-1.16-.27C198,95.16,195.34,93.26,193.94,90.51Zm2.78,14.71c2.48,4,6.65,6.21,11.48,7.8-2,1.34-5.65-.28-7.44-1.34-.57-.34-1.23-.58-1.71-.9-1.78-1.25-2.34-3.68-3.49-5C195.77,105.34,196.16,105.26,196.72,105.22Zm-2,1c.54.09.87,1.15,1.25,1.79,2.07,3.49,4.75,6.21,9.69,6.9-1.87,1.39-4.79.27-6.64.27a6.67,6.67,0,0,1-2.51-2c-.21-.24-.59-.36-.81-.63a13.18,13.18,0,0,1-1.61-4C193.93,107.6,194,106.12,194.75,106.21Zm-1.53,1c.83,3,1.62,6.1,3.77,7.81a42,42,0,0,0,1.52,5.29,11.4,11.4,0,0,1-5.47-2.6,8.14,8.14,0,0,1-.8-1.44,9.87,9.87,0,0,1-.9-1.35c-.68-2.05-.09-4.71-.54-7.52A3.06,3.06,0,0,0,193.22,107.19Zm-5.92-.09c.74.28,1.82.22,2.42.63a108.27,108.27,0,0,0,3.42,15c-.34.14-1.38-.53-1.89-.81-.27-.4-1.07-.93-1.26-1.52a9.56,9.56,0,0,1-.08-1.53,15.15,15.15,0,0,0-1.08-3.59c-1-2.56-.85-5.27-1.53-7.88Zm-1.25,4.67a15.62,15.62,0,0,1,.26,1.7c-.06,1.36-.89,2.65-.71,4-.83-1.08-.8-2.43-1.08-3.77-.57-2.74-2.07-5.37-3.14-7.63,1.08-.35,2-.85,3.05-1.25.62.24.42,1,.54,1.53s.47,1.15.63,1.79A24.94,24.94,0,0,1,186.05,111.77Zm-3.77,5.83c-1.67-1.91-3.88-4-5.65-5.83-.14-1.34-.94-4.56-1.17-6.37,1.73.22,3.07.88,4.13.9,3.27,2.06,3.07,7.85,4,12.55C183.12,119,182.61,118,182.28,117.6Zm.81,3.49a9.38,9.38,0,0,1-1.35,3c-1.4,4.33-4.33,7.15-6.9,10.31a26.23,26.23,0,0,0,4.39-11.75c.18-1.59-.11-3.45.72-4.67C181.32,118.67,182,120.05,183.09,121.09Zm-9.33-1.79c-.21.38-.57.6-.73.94.73-3.09-.35-6.16-1.16-9a17.73,17.73,0,0,1-.89-4.49c.05-1,.93-1.66.89-2.69,1.14.31,1.9,1,3.06,1.26.08.89.48,3.39.53,4.49,0,.14-.15-.09-.18.08C175.64,112.54,175.16,116.84,173.76,119.3Zm-.73,1c0,.1-.05.2-.08.3A.74.74,0,0,1,173,120.25Zm-7.16-17c-.32-4.14-2.06-7.77-2.07-11.76.45-.62,1.11-1,1.44-1.79,1.35.8,2.08,2.23,3,3.5a18.81,18.81,0,0,0,2.87,1.25A25,25,0,0,1,167.66,109a6.91,6.91,0,0,1-1.89,2.52C165.34,108.82,166.06,105.91,165.87,103.25Zm-48.71,7.26c-.52.08-.64-.59-.9-1a30.41,30.41,0,0,1-2.69-5.48,24.91,24.91,0,0,1-1.53-10,12.31,12.31,0,0,0,6.46-4C118,96.49,116.75,102.9,117.16,110.51Zm-6.82,9.87c-1-2-2.34-3.81-2.6-6.73s-.37-5.9.72-8.61c1-.5,2.28-.64,2.87-1.52.57,1.39.83,3.1,1.43,4.48A23.79,23.79,0,0,0,110.34,120.38Zm2.51-11.93c.88.92,1.86,2.34,2.78,3.41a9.05,9.05,0,0,1,1.08,1.52c.14,1.29-2,2.77-2.15,4-1.21,1.07-2,3.07-3.23,3.77C111.26,116.64,111.36,112,112.85,108.45Zm-6.64-18.3c5.34-.22,8.24-2.89,9.24-7.45a16,16,0,0,0,1.62,4.58c.27.54,1,1.39,1,1.7s-1,1.36-1.61,1.71C113.84,92.27,107.85,93.34,106.21,90.15Zm12.83.72c2.08,1,3.75,3.19,6.82,3.49,1.11.82,3.34.29,5,.36-.07-.52-.68-.49-1-.72-1.61-1.17-2.48-3.2-3-5.56,2.71,1.54,5.19,4.17,9.06,4,.61-1.73.54-3.61.45-6.19.35-.13.54.41.72.63a27.24,27.24,0,0,1,3.05,5.47,9.2,9.2,0,0,0,1.17,2.15c.77-.53.75-1.54,1.07-2.33a19,19,0,0,1,3.95-6.28c.47,2.41.31,5.42,2,6.64,3.2-.5,5.07-2.34,7.53-3.59-.46,3-2.43,4.39-3.59,6.64A27.07,27.07,0,0,0,163.35,92a64.18,64.18,0,0,1,1.26,9.15c.12,1.57-.08,3.67,0,5.38,0,1.14.32,4.07-.45,4.31s-2.33-1.87-2.78-2.42c-2.61-3.24-4.47-7.54-6-11.48-1.58,2.76-2.19,4.83-4.49,7.35-1.6-3.63-1.81-6.55-2.69-10-.13.44-.65.48-.72,1-2.25,1.46-3.53,3.88-5.74,5.38a43.47,43.47,0,0,1-3.85-4c-.24-.26-.42-.85-.9-.63-1.38,2.9-2.4,6.15-4,8.79-2.47-1.79-3.8-5.63-4.84-8.25-2.19,4.51-4.26,8.72-6.46,11.3a22.46,22.46,0,0,1-3.32,3.68C118.92,105.17,118,98.58,119,90.87Zm46.47-1.62c.16-.51.51-1.26.89-1.25.12-1.35,1-2.74,1.17-4.31,1,.69.91,1.91,1.52,2.78,1.56,2.19,5.21,3.25,8.61,3.59a5.22,5.22,0,0,1-3,2.51C170.94,93.38,167.28,91.27,165.51,89.25Zm1.61,23.68c.91-1.35,1.63-3.08,2.6-4.39.15-.28.09-.59.63-.81a3,3,0,0,1,.9,2.07c.29,2,.58,4.76.8,7,.15,1.44-.27,3.13-.27,4.66a26.27,26.27,0,0,1-5.83-7.08C166,113.74,166.74,113.49,167.12,112.93Zm6.9-9.41c-.3.19-1.53-.81-2.15-1.17-.06-2.71.21-6.21-.27-7.44,1.71.46,2.32,2.45,4,3.22a14.62,14.62,0,0,0,2.69.63,19.45,19.45,0,0,0,6.82.45,13.22,13.22,0,0,0-.72,2.15,7.47,7.47,0,0,1-5.2,3.14,30.62,30.62,0,0,1-3.41-.18A2.38,2.38,0,0,1,174,103.52ZM184.52,94c.61.7.3,1.7.63,2.88-4.31,1.07-10.2,1-12-2.16C177.46,95,181.53,95.57,184.52,94Zm14.36-52.47A44.16,44.16,0,0,1,203.72,44c3.48-.17,6.19.66,7.26,3.05,0,.08-.06.07-.08,0a15.65,15.65,0,0,1,1.16,3.47c.11,1.47-.75,2.73-.72,3.86a7.8,7.8,0,0,1-3.05,2.06,5.06,5.06,0,0,0-2.06-3.14,10.5,10.5,0,0,0-1.16-.72c-.27-.11-.69,0-.72-.36-4.5-.57-6.82,1.43-9.42,3.14-1.45.48-2.24-.34-3.23-.71a6.53,6.53,0,0,0-2.87-.27,29.4,29.4,0,0,0-5.29,3c-.28.2-.69.44-.9.62s.06.19,0,.28-.24,0-.27,0a8.88,8.88,0,0,0-1,2.15,1.74,1.74,0,0,0-.63.71c1.31-.53,2.45-1.79,4-2.24a25.31,25.31,0,0,1,2.6-.45c1.26-.19,3-.57,3.86,0,1.57-.08,2.58.94,3.77,1.35.93.32,2.13-.2,3.4.18.37,1.58-1,1.51-2.69,1.43-4.73-.22-11.24.45-14.53,1.89a12.19,12.19,0,0,0-1.7-.63c-1.2-1.18-.78-2.86.18-4.31,1.63-2.46,5.69-3,8.34-4.66.58-.37,1.1-.81,1.7-1.26,1.23-.89,2.52-1.52,3.68-2.24.21-.13.51-.19.54-.54.32.33-.28.49-.18.9.5,0,.52-.69.72-1.08.58-1.12,1.49-2.4,2.06-3.59a.35.35,0,0,1,.45,0C196.75,44.4,198.68,43,198.88,41.53Zm-.81,17.58c-2.49.21-3.81-.72-5.74-1.26A7.56,7.56,0,0,1,198.07,59.11ZM190.17,45c.19.15.75.26.54.54,0,.3-.6.69-.8,1.07-2.59.42-3.94-.9-4.76-2.78.65-.21,1.35.25,2,.36C187.4,45.67,189.55,47.28,190.17,45Zm-1.34-.36a4,4,0,0,1,.89.27c-.05.27-.29.36-.44.54C189.16,45.2,188.54,45.07,188.83,44.67ZM159,47.45c.83-.39,1.69-.88,2.42-1.25.11,2-2.23,3.4-4.39,2.59C157.24,48,158.25,47.78,159,47.45Zm-8.52,18.66c.75-1,1.37-2.55,2.15-3.86a13.23,13.23,0,0,1,1.7-2.33c1.16-1.22,2.19-2.35,4.22-1.52-.37.52-1.17.62-1.89.8,0,.49.64.39.72.81,2.83.55,5.91,1.74,8.79,2.33,2.67.55,4.77-.44,7.27-1,1.8-1.52,4-2.63,4.66-5.29a32.83,32.83,0,0,1-2.15,2.6,8.21,8.21,0,0,1-6.1,2.07c-.56-.07-1.12-.12-1.7-.18-2.22-.23-4.38-1-6.37-1.35a4,4,0,0,0-1.53-.72c1.24-1,3.66-.71,5.3-1.52a23.3,23.3,0,0,0,3.32-2,28.91,28.91,0,0,1-8.17,1.62,9,9,0,0,1-3.32-.63c-1.87-.61-2.79-1-3.77-2.87a20.5,20.5,0,0,1-1.61-4,13.52,13.52,0,0,0,3.86,2.07,9.47,9.47,0,0,0,2.77.72,7.64,7.64,0,0,0,5.57-5c.13,0,.16-.22.36-.09,0-.07-.08-.16-.18-.17,0-.26.24.21.18-.19.92,0,1.31.77,1.7,1.35s.43,1.48.9,2.06c-.09-1.79-.44-4.11-2.42-4.3-1.18-1.91-4.35-.94-6.28.09.28-.92,1-1.35,1.52-2.07.4-.17.89-.25,1.08-.63.9-.47,2.14-.62,3.23-1.16,0,0,.07-.19.11-.22-.87-1.74-2.17-3.65-2.53-6.33A15.72,15.72,0,0,0,173,40.72a12.06,12.06,0,0,0,3.41-.27c.67-.18,2.29-1.21,2.42-2,.21-1.17-1.27-2.93-2.06-3.14,1.7.27,4.87,0,6.73.63.38.13.62.42,1,.54a5.36,5.36,0,0,1,1.17.27,9.12,9.12,0,0,1-1.35-7.18c.21.21,0,.8.09,1.16.82,1.19,1.76,4.1,3.77,4.94,0,.3.36.29.36.63,1.67.59,3.52,1.85,5.11,1.7a18.53,18.53,0,0,1,4,3c-.54,1-1.22,1.76-1.71,2.78-1.07-1.67-2.73-2.76-4.21-4a17.37,17.37,0,0,1-4.75.27c-1.2-.13-2.38-1.07-3.24-1.07a9.53,9.53,0,0,0-3.58,1.52,2.69,2.69,0,0,0-.54,2.33c.45-.22.37-1,.63-1.43a22.83,22.83,0,0,0,3.14-1.35c2.78.82,5.22,1.5,7.71,1.08,2,.51,3.17,2.77,1.26,4.12-3.42-1.45-6.87-3.55-11.76-2.59,0,.74,1,.51,1.62.62a2.76,2.76,0,0,0,2.33,1.08c.25.43-.32.81-.45,1.17-.12,1,1.1,1.87.63,3a4,4,0,0,0,1.35,1.52c-.84,0-2.09-.28-3.14-.35.71.68,2,.8,3.22,1-.12.87,1.34.78,2.07,1.08a26.72,26.72,0,0,1-4.84,2.78c-1.33.49-2.56.56-3.5,1.52a9.24,9.24,0,0,0-1.17,2.06,14.37,14.37,0,0,0-.9,1.35,4.63,4.63,0,0,0-.35,2.78c.34,1.06,1.55,1.19,2.15,2.15-1.3.86-2.88,1.43-3.77,2.7.29,0,.85-.42,1.26-.54-.68,1.35-2.09,2.57-2.24,4.57a9.47,9.47,0,0,0,1.34,5.47c0,.25.36.44,0,.27.25.36.93.72.8,1.17a12.37,12.37,0,0,1-6-2.24c-1.49-1.15-2.37-2.92-3.95-3.86-2.45,2.51-4.78,5.15-8.88,6a29.42,29.42,0,0,0,1.17-9.42c-.06-.82-.57-1.56-.63-2.42-.22,1.14-.29,2.78-.45,4.21a13.23,13.23,0,0,1-9.06,1c1.84-1.12,4.12-1.91,4.93-4,.12-.29.06-.61.18-.89.68-1.63,2.06-3.08,2.88-4.58-2.27,1.09-2.89,4.26-5,5.74-.34.24-.86.39-1.26.63a10.56,10.56,0,0,1-4.12,1.53C147.58,68.3,149.39,67.52,150.44,66.11Zm-.72,7.62c3.6.17,6-.61,8-2.24a31.77,31.77,0,0,1-2.33,7.8c.3.49,1.35.3,2.15.27,5-.22,7.38-2.92,9.42-6.45a15.66,15.66,0,0,0,4.4,4.66c-.44,2.64,1.18,5.72,2.87,7.53.47.51,1.24,1.45,1.34,1.35.83.49,2.39.58,3.68,1-.34.65-1.37.69-2.15.71a13.46,13.46,0,0,1-4.58-.9c-2.63-.79-4-2-4.66-4.75-.29-1.26.12-2.43,0-3.85-1.09,2.74-1.74,6.59-3.68,9.23a23.27,23.27,0,0,1-9,5.66c1.47-1.11,2-2.65,2.24-4.67a.81.81,0,0,0,.54-.36c.12-2.4-.23-4.5-1.53-5.74a16.8,16.8,0,0,1-.17,3.86,19.57,19.57,0,0,1-7.18,4c-1.7-3.67-1.15-10.8,1.16-13.73-1.78,1.21-2.95,3.81-3.58,6.46a11,11,0,0,1-3-1.25A73.08,73.08,0,0,0,149.72,73.73Zm-7.27,9.15c.35,1.42,1.74,1.79,3,2.34a44.74,44.74,0,0,0-4.12,7.8c-.68-1.15-1-2.5-1.62-3.14,0-.07.05-.07.07,0a42.28,42.28,0,0,0-2.85-4.62C139.06,84.75,140.46,83.53,142.45,82.88ZM103.88,63c-2.52.15-4.19-1.07-6.82-1.26-3.19-.23-6.76.42-10.23-.09-1-.14-1.52-.51-1.52-1.34a.25.25,0,0,0,.18-.27c1.28-.24,2.42,0,3.68-.27,1.51-.27,2.52-1.45,3.86-1.62.45,0,1.75,0,1.79.18a13.8,13.8,0,0,1,6.64,1.35,12.72,12.72,0,0,0,1.61,1.79,26.34,26.34,0,0,0-2.42-3.59c-1.13-.82-1.78-1.94-3.32-2.51.06-.28-.32-.12-.09-.36-.91,0-1.86-1.09-3-.89-.07-.26.13-.23.09-.45A17.43,17.43,0,0,0,89,55.07c-1.8-.86-3.26-2.33-5.29-2.68-2.75-2.24-7.18.61-8.26,3.13a5.5,5.5,0,0,1-3.67-4.84c-.31-4,3.15-8.42,8.16-6.82.93-1.61,2.91-2.43,4.84-2.78.1,0,0,.09,0,.09,1.45,2.21,2.79,5.89,4.94,8,.81.09.9.36,1.34.8,4,2.95,9,5.56,13.1,8.7C104.46,59.57,105.06,62,103.88,63ZM86.21,59.2A7.87,7.87,0,0,1,91,57.76a12.14,12.14,0,0,1-3.68,1.53C87.11,59,86.94,59.24,86.21,59.2ZM95.8,45.66c0-1.79,1.92-1.38,3-2.24-.53,1.86-3.75,4.07-5.56,2.78C94.09,46.11,95.21,46.23,95.8,45.66ZM94,45.21c.25-.15.39-.39.81-.36a.49.49,0,0,0-.09.36ZM94.46,50c-.08.1-.17,0-.45.09-.05-.19-.22-.26-.18-.54a.75.75,0,0,1,.54-.08c-.1.4.4.2.27.62-.21,0-.17-.31-.45-.27C94.18,50.14,94.33,49.75,94.46,50Zm11.39,28.89c2-2.68,4.16-5.76,3-10.23-.24-.15-.28-.49-.53-.63.41.07.86.88,1.34,1.17-1.45-2.07-4-4-5.2-5.65-.08-.58.64-.76.89-1.26s.19-1.36.54-2c-.54-2-.94-3.47-2.33-4.58-1.07-.84-2.61-1.09-4-1.79A16.58,16.58,0,0,1,96,51.76c3.19-1.64,7.1-2.53,10.06-4.4A60.55,60.55,0,0,0,99,49.51a15,15,0,0,0-3.86.45,9.84,9.84,0,0,0,3.77-5c0-.39-.16-.27-.36-.36a6,6,0,0,0,.71-1.26c1.37,0,2.4-.36,3.59-.26-4.17-1.81-7.65,1.15-11.12,1.7-.25-.58-.44-.45-.63-1.26A6.55,6.55,0,0,1,92.4,42c1.29.64,3.37.12,4.84-.63,1-.51,2.18-1.56,3.05-1.62,1.18-.07,2.14,1,3.23,1.17.29.36.59,1.19,1,1.71.11-2.24-2.07-3.24-4.12-3.77-2.37.73-4.81,2.54-7.44,1.88-.28-.07-.44-.3-.72-.27-.49.06-1.75,1.31-2.24,1.8-1.17,1.14-1.12,2-.45,3.68-.35-.1-.63-.28-1-.36-.34-.8-.57-1.61-.9-2.51-.26-.74-.94-1.76-.89-2.43.15-2.2,5.33-3.31,6.81-3.85.54-.2.71-.09,1.08-.36a27,27,0,0,0,2.51-2.78c.95-1,1.55-1.95,2.51-2.78,0,2.26-1.11,4.11-1.61,6.18,2.49-.94,5.65-2.3,9-2.42-.47.76-1.65,1.4-1.79,2.6-.37,2.94,3.1,3.62,6.1,3.41a16.63,16.63,0,0,0,9.86-4.57c-.1,2.11-1.32,3.88-2.24,5.47,3.18.92,6.15,2,6.73,5.29-3-1.94-6.24-2.49-8.52,0a5.81,5.81,0,0,0-.72,5.74c.38-2.33,1.2-4.24,2.87-5.29A11.8,11.8,0,0,0,123.88,51a11.56,11.56,0,0,1-3.32.45c.11.42.64.43.72.44,4.73.74,7.86-1.8,10.67-3.22a21.39,21.39,0,0,1-2.6,5.38,10.06,10.06,0,0,1-5.2,2.33,4.34,4.34,0,0,1-.63.09c-3.76-.15-8.11-1-10.58-2.69.83.52,1.42,1.66,2.42,2.24a16.19,16.19,0,0,0,4,1.26c1.38.35,2.62.9,3.86,1.25-1.59,1.44-4.31,1.63-6.55,1.8a15.56,15.56,0,0,1-8.7-1.62c-.15.46,1.35,1.23,1,1.35a19.67,19.67,0,0,0,10.95,1.7,15.59,15.59,0,0,0,6.28-2.87c-.62-.28-1.06-.74-1.71-1a20.93,20.93,0,0,1,2.87-.19,11.32,11.32,0,0,0,1.52,1.71c0,.28.2.41.28.63,1.85,1.88,2.82,4.65,4.21,7,1,1.05,1.88,2.19,3.5,2.6a9.83,9.83,0,0,1-5.38-2.52c-.52-.42-1.11-.68-1.62-1.07-1.72-1.32-2.4-3.88-4.57-4.67,0,.51.67.76,1,1.08,1.26,1.26,1.91,3,3.14,4.4a13.17,13.17,0,0,0,4.22,3.4c.73,0,1,.48,1.62.55-3.2,2.12-7.57-.21-10-1.71a7.82,7.82,0,0,1,0-2.06A11.08,11.08,0,0,0,124,70.77c-.36,2.51.9,5.3,1.08,6.73a3.61,3.61,0,0,1-1.61-.45c-2.54-1.35-4.3-4.21-6.73-5.74C114.29,75,110.46,77.32,105.85,78.85Zm20.28-29.52c-.7.32-2.14.28-2.43-.35-.76,0-1.1-1-1.52-1.62C123.34,47.82,124.59,49,126.13,49.33Zm-14.27,30.6c.39-.51-.16-.76.09-1.35.36-.87,1.57-1.36,2.42-2.07a18,18,0,0,0,2.52-2.78c2.76,1.93,5.18,5.67,10.32,5.47.2-.77-.44-1.45-.63-2.24-.46-1.85-.7-3.91-1-5.65a12.62,12.62,0,0,0,8.16,2.06c.48,0,.53.56.9.18,1.35,3.26,3.49,5.72,5.56,8.26-1.18.41-2.7.93-3.59,1.34-.72-1.65-1-3.94-2.06-5.29-.25-.33-.65-.83-1.08-.9a25.22,25.22,0,0,1,1.17,13.73,27.93,27.93,0,0,1-5.21-2.25c-.19-.69-.92-1.13-1.52-1.88a6.65,6.65,0,0,1-1.17-1.62c-.17-1.08,1-1.81,1.71-2.51-1.54-.13-2.7,1.94-3.23,3.41.06.42.3-.14.36.09-.42,3.27.74,5.39,1.79,7.45-1.87-.79-3.85-1.26-5.38-2.33-1.13-.8-1.64-2.18-2.78-2.79-1.45-2.71-3-5.26-3.68-8.78-.41,5.66-3.76,9.22-10.23,9-.55-.53-.34-.79-.81-1A10.37,10.37,0,0,0,111.86,79.93ZM103.7,93.74a12,12,0,0,1,1.8-.54c.82,0,1.71.66,2.51.9a17.81,17.81,0,0,1,2.6.71c-.81,1.65-2.77,3.5-5.11,3.41a9.11,9.11,0,0,1-5.66-2.78,18.67,18.67,0,0,1-1.79-3A6.47,6.47,0,0,0,103.7,93.74Zm-6.64,1.17a10.38,10.38,0,0,0,5.56,4.48,7.28,7.28,0,0,0,8.35-4,49.79,49.79,0,0,0,.36,7.27c-3.58,2.4-11.13,2.89-13.46-1.17C96.92,99.79,97.07,97.29,97.06,94.91Zm10.4,39c-2.49-1-4-3.86-5.28-6.72a19.24,19.24,0,0,1-1.35-4.13,7.86,7.86,0,0,1-.27-3.22c.25-.85,2.08-2,2.7-2.7.23-.27.32-.67.53-.9.44-.47,1-.65,1.35-1.16a36.19,36.19,0,0,0-1.8,6.64C102.79,126.83,105.26,131.29,107.46,133.92Zm-3.13-20c-2.15,2-4.47,4-6.19,6,.75-6,1.62-10.86,5-14.26a9.71,9.71,0,0,0,4.4-.36,21.22,21.22,0,0,0-.81,3,20.53,20.53,0,0,1-.36,3.5C106.16,112.54,105,113.26,104.33,113.92Zm-7.45-4.31c.16-.85.49-1.64.63-2.42a4,4,0,0,1,1-2.6,13.54,13.54,0,0,0,3.86,1.08c0,.3-.28.59-.45.8-1.49,1.9-3.47,4.35-4.13,7.18a51.52,51.52,0,0,0-.81,6C95.9,116.52,96.26,112.93,96.88,109.61Zm-.8-2.33c-.09,1.26-.89,3.53-1,4.49.1,0,0,.09,0,.09-1.58,2.89-1.77,6.39-2.24,9.69-.55.67-1.58.94-2.43,1.52,0-2.61,1.63-5.24,2.16-8.07.44-2.37.64-4.76,1.16-7.09C94.32,107.5,95.39,107.58,96.08,107.28ZM99.39,159A15.52,15.52,0,0,0,103,158a11,11,0,0,0,2.25-1.79c.51-.46,1.79-1.88,2.15-1.89.58,0,.77.78,1.08,1.35,1.25,2.32,3.69,4.42,5.55,6.37a1.8,1.8,0,0,1,1,.72,10.49,10.49,0,0,0-2,5.38,23.16,23.16,0,0,1,1.26-2.42c.38-.64,1.12-2,1.7-2,.86,0,1.06,1.51,2,1.7-1.43,1.28-3.16,3.23-3.4,4.66s-1,3.27.08,4.58c-3.76.3-3.63-5.16-3.58-9.51-.33,0-.51.87-.63,1.35a45.45,45.45,0,0,0-2.69,4,71.86,71.86,0,0,1-7.8,5.74,56.44,56.44,0,0,0,.89-9.77,15.37,15.37,0,0,0,2.69-1.71,12.1,12.1,0,0,1-9.33-.63,17.87,17.87,0,0,1,4-1.16c2.85-.75,5-2.65,7-4.22a21.56,21.56,0,0,1-6.37,2.15,9.68,9.68,0,0,1-5.11-1.26c-1-.45-2.65-1.15-3.15-2.33,4.44,1.24,9.14,1,11.93-1.61.08-.28-.3-.11-.18-.45a26.82,26.82,0,0,0,3.41-5.47c.4,1.08,1.79,2.23,1.44,3.68-.19.75-1.36,1.44-2.15,2a14.8,14.8,0,0,1-4.13,2.24,17.71,17.71,0,0,1-5.48,1.17A10.92,10.92,0,0,0,99.39,159Zm18,12.92c.25-.25.84-.17,1.34-.18a10.76,10.76,0,0,1,3,4.48,5.76,5.76,0,0,1,0,2.07c-1,4.84-6.27,8.38-10.67,9.77.21.44.84.47,1.34.63-2.84.63-6.15,1.37-9.06,1a8.68,8.68,0,0,1,.18-1.53,14.21,14.21,0,0,0,12-4c1.81-1.68,3.57-3.67,4.22-5.91-2.25,0-4.27,1-7.09.71a1.34,1.34,0,0,1,.45-1.52c2.2.33,5.06.13,6.1-1.25C118.55,174.8,116.87,173.92,117.34,172ZM109.53,194a38,38,0,0,1-5.38.9,42.94,42.94,0,0,1-.81-4.4c1.89.19,4.37,1,6.28,1.17A1.51,1.51,0,0,0,109.53,194ZM95.72,156.44a19.81,19.81,0,0,1-8.35-1.35,15.66,15.66,0,0,0,2.78-3.77c.2,1.24-1,3.07.09,4.22,5.55-.75,10.2-3.91,12.12-8.88a7.32,7.32,0,0,0,1,2.42C102,152.42,99.8,156.15,95.72,156.44ZM85,153.93A11.85,11.85,0,0,1,81.63,156c-.1,0,0-.17,0-.18-.68.31-.72.55-1.25.63,2.85-3.05,4.61-7.18,5.38-12.29.43-.56.55-1.43,1.07-1.89,1.36-.17,2.66-.39,4-.54a42.34,42.34,0,0,1-1,4.49,17.31,17.31,0,0,1-3.4,6.1c-.42.45-.84,1.08-1.17,1.35-.11.09-.41.06-.45.09S84.93,154,85,153.93ZM92,152c1-2.11,1.06-7,1.71-11.21a23,23,0,0,0,2.87-1.17c.5,3.32,0,7.12-1.53,9.51A26.88,26.88,0,0,1,93.21,152a2.81,2.81,0,0,0-1.08.36C91.8,152.35,92.37,152,92,152Zm4.66-2.15c.94-2,2.07-5.46.9-7.9a16.69,16.69,0,0,0-.36-2.68,17.57,17.57,0,0,0,3.32-1.89c.23,0,.27.27.54.27C101.09,142.85,99.56,146.89,96.61,149.89ZM88.27,140a.45.45,0,0,1-.45-.18c0,.14,0,.14-.27.27.1-.55.78-.53,1.17-.71A38.74,38.74,0,0,0,97.06,134c.62.56,1,1.3,1.71,1.8C95.84,137.42,92.35,139.82,88.27,140Zm6.64-5.2a9.64,9.64,0,0,1-1.35.81c-.28.23-.46.63-.9.8s-.63.06-1,.19c-1.11.38-2.17,1.26-3.41,1.79a28.47,28.47,0,0,1-5.92,1.88,32.91,32.91,0,0,0,11.39-11.84,45.77,45.77,0,0,1,2.42,4.22C95.63,133.33,95.53,134.24,94.91,134.82ZM58.4,127.47a60.52,60.52,0,0,1-23.14,16.59c1-1.66,2.47-2.8,3.41-4.49,7.56-4.92,15.41-9.58,20.54-16.95a5.85,5.85,0,0,1,1.35,1.61c-.54,1-1.15,2.44-2,2.88,0-.07-.09-.09-.09-.18v-.09C58.32,127,58.59,127.24,58.4,127.47Zm12-37.86c.74,1,1,2.39,1.88,3.68-1.71.13-2.56-1.37-4.21-1.62-.22.43.34.85.36,1.35a8.65,8.65,0,0,1-4.85-2.24,14,14,0,0,1-2.77-2.61c-1.06-1.63-1.41-3.75-1.8-6.09C62.69,84.91,65.68,88,70.42,89.61Zm-11.3-12c.39-.11,1,1.16,1.34,1.61.54.65,1.31,1.26,2,2,2,2.17,4.42,4.46,7.53,5.56a5.21,5.21,0,0,1,.36,2.15,17.7,17.7,0,0,1-7-4.48C61.45,82.67,59.07,81.27,59.12,77.59ZM83.43,99.12c.47,0,.7-.32,1.16-.36.14,1.16-.24,2.46.18,3.5-4.85,1.61-10.4-.59-12.47-4.13a20.79,20.79,0,0,0,10.41,1.26c.31.53.23,1.44.63,1.88C83.7,100.67,83.31,100,83.43,99.12ZM73,107.46a33.56,33.56,0,0,0,4.76.54c3.31-.29,5.45-2.34,7.89-3.76.28.25.43.64.81.8-2.07,3.46-8.39,6.6-12.38,3.59C74.45,108.48,73.22,107.93,73,107.46Zm-.8-1.79c4.33-.84,9.34-1.48,12.73-3C83.94,106.87,76.41,107.78,72.22,105.67Zm-2.69-.45a21.22,21.22,0,0,1-8.53-3c-1.74-1.06-2.24-2.42-3-4.67-.33-.92-.81-1.88-1.08-2.78a26.39,26.39,0,0,1-.8-5.92c.1,0,.16,0,.18.09.88,1.25,1.12,2.66,1.79,3.77a16.84,16.84,0,0,0,5.29,5,15,15,0,0,0,6.38,2.61,5.73,5.73,0,0,1,1.16.09c.79.25,1.26,1.13,2.06,1.7,1,.69,2.08.47,2.87,1.25-2.39.26-5,.23-7,.45C68.7,104.66,69.4,104.66,69.53,105.22Zm-12-4.93a11.19,11.19,0,0,1-3-1.8,8.63,8.63,0,0,0,1.7-.45A7.56,7.56,0,0,0,57.5,100.29Zm25.12-1.44A15.35,15.35,0,0,1,71,95c3.09,1.06,7.47,3.05,11.75,2.06A4.41,4.41,0,0,1,82.62,98.85Zm-14.26-4.4a43.75,43.75,0,0,0,2.33,5.39c-3.39-.26-5.62-2-7.62-3.77a15.48,15.48,0,0,1-3.59-4.31A12.34,12.34,0,0,1,58,88.53C60.83,91.1,64,93.42,68.36,94.45ZM55.17,83.15c.53,0,1.58.27,2.42.27.15.84.53,1.45.72,2.24C57.22,84.87,56.28,83.93,55.17,83.15Zm.27,12.92a6.93,6.93,0,0,0,.63,1.52c-.75.19-1.44.69-2.15.63-1-.08-1.84-1.23-2.7-1.52C52.72,96.58,54,96.27,55.44,96.07Zm-2.06,3.68c1.34.93,3,1.22,4.39,2,1.12.59,2.14,1.42,3.32,2,.36.17.79.19,1.17.36s.74.56,1.16.72c2,.76,4.3.63,6.55,1.34a27.49,27.49,0,0,1,1.88,2.52A2.63,2.63,0,0,1,73.2,110a13.47,13.47,0,0,1-5.56.54c-3.17-.21-5.77-2.34-7.89-4a40.15,40.15,0,0,1-6.46-6.63C53.27,99.76,53.32,99.75,53.38,99.75Zm17.94,11.39a14.24,14.24,0,0,1,2.33-.54c1.19,0,2.41.83,3.5.72a34,34,0,0,1-4.4,1.79c.36.61,1.72,1.46,2,2.16a21,21,0,0,1-7.72.45,12.88,12.88,0,0,1-4.39-.9,15.25,15.25,0,0,1-3.86-3.77,19.15,19.15,0,0,1-3.23-4.75C59.33,109.19,64.52,112.31,71.32,111.14Zm-13.1,3.23a20.61,20.61,0,0,1-3.85-1.44,4.14,4.14,0,0,1,2-1.07C56.88,112.78,57.85,113.27,58.22,114.37Zm-1.7.63a35.91,35.91,0,0,0,12.91,2,11.19,11.19,0,0,0,3.59-.72,7.31,7.31,0,0,1,2-.63c.46,0,.58.31,1.07.54a17.52,17.52,0,0,0,3.86,1c-2.5,1.32-6.1,1.75-9.69,2.06-2.71.24-5.14-.71-7.71-1.26C59.81,117.39,57.33,117.09,56.52,115Zm.71,4.66c-3.93,3.9-8.82,6.84-13.9,9.51a98.75,98.75,0,0,1-16.24,7.09c1.37-2.13,2.91-4.1,4.4-6.1a63.36,63.36,0,0,0,24.94-11.58C56.81,118.82,56.91,119.35,57.23,119.66Zm2.34-.63c7.48,1.77,14.71,1.32,20.81-1.25a6.26,6.26,0,0,1,1-.54c1.13-.27,2.06.09,3-.45-.11,1.8-1.83,2.84-3.24,3.76-.44.3-.86.78-1.25,1a20.22,20.22,0,0,1-3.5,1.16,20,20,0,0,1-7.27.9c-3.56-.16-5.69-.63-7.62-2.24A12.43,12.43,0,0,1,59.57,119Zm9.69,6.46c2.06-.63,4.26-.87,6.27-1.52a43,43,0,0,0,4.13-2,13,13,0,0,0,4-2.34c.17.63-.8,2.37-1,3.5-1.13.53-2,1.46-3.23,2.06-4.28,2.1-10.49,2-16.15,2.33C65.29,126.91,67.22,126.11,69.26,125.49Zm3.85,2.15c1.38-.33,2.79-.47,4.13-.89a25.44,25.44,0,0,0,5.74-3c.59-.37,1-1,1.61-1.26s1.41-.5,2.07-.8,1.43-.71,2.06-1.09c.07,0,.08,0,.09.1-.61,2.5-2.11,4.11-3.23,6.1a15.11,15.11,0,0,1-4.66,2.6A26.61,26.61,0,0,1,73.29,131c-3.07.2-6.24,0-8.25-1.61A45.61,45.61,0,0,0,73.11,127.64Zm16.51-2c-1.08,1.21-2,2.8-3.41,3.77-.61.42-1.54.72-2.33,1.16s-1.55.82-2.33,1.17c-2.58,1.14-5,2.14-8.17,2.06,3.54-1.57,8-2.26,10.68-4.66,1.38-1.75,3.2-3.08,4.21-5.2.13.39-.22,1.09-.18,1.7C88.49,125.89,89,125.55,89.62,125.67ZM76.7,134.73a28.3,28.3,0,0,0,3.94-1.61,31.28,31.28,0,0,0,3.78-1.71,25.74,25.74,0,0,0,2.51-2.15c.83-.72,1.83-1.45,2.51-2.15.44-.46.74-1,1.17-1.44a11.86,11.86,0,0,1,1.52-1.35c0,.68,1,2.76,1,3.5,0,.5-.9,1.44-1.34,2a19.33,19.33,0,0,1-1.62,1.7c-1.14,1.14-2.07,2.51-3.4,3.14a20.46,20.46,0,0,1-2.61.81c-1.88.55-4.47,1.58-6.81,1.52-3-.07-5.52-1.28-8-2C72.06,134.77,74.52,135.28,76.7,134.73Zm3.68,3.86c.8-.18,1.47-.51,2.33-.63a7.82,7.82,0,0,1-2.42,1.7C80.22,139.21,80.44,139,80.38,138.59Zm12.28-31c-.45,2.64.15,5.47-.53,7.54a16.81,16.81,0,0,1-1.71,2.78,11.71,11.71,0,0,1-5.38,2.6c3.9-2.56,5.64-7.28,6.55-12.83A2.23,2.23,0,0,0,92.66,107.55Zm-1.7.18a16.7,16.7,0,0,1-5.38,11c.07-1.07.78-2.27.9-3.59,2.09-1.73,3-4.64,3.67-7.79C90.44,107.66,90.73,107.5,91,107.73Zm-2.42-1.34c.11,0,.16,0,.18-.09.77.18.85,1.33.63,2.42a12.84,12.84,0,0,1-1.62,4c-.21.26-.58.31-.8.54s-.13.46-.27.63c-.62.7-1.64.93-2.24,1.44-1.87,0-4.63,1-6.64-.19C83.42,114.3,86.23,110.59,88.54,106.39Zm-.72-.63c-.77,1.42-1.8,4.09-3.4,5.2-.49.34-1.21.55-1.8.9a13.18,13.18,0,0,1-1.7.89c-1.67.69-3.72,1.38-5.39.72,4.43-2,8.78-4.14,11.3-8.07A1.49,1.49,0,0,1,87.82,105.76ZM76.34,85.12a10.71,10.71,0,0,1-2.6-5.38c0-.16-.22-.33.09-.45-.92-1.82-.74-6.62-.45-9.23.1,0,.05.08,0,.08,1.33.66,2.28,1.9,3.5,2.88,3.07,2.44,7.19,3.63,10.31,6a13.31,13.31,0,0,1,1.89,4.49c.6,2.12,1.44,5.22.45,7.18-1.34,2.63-4.22,4.92-4.94,7.8a7.59,7.59,0,0,1-1.16.27,37.91,37.91,0,0,1,.27-4,15.91,15.91,0,0,0,2.15-4.66c.39-1.23.84-2.38.45-3.59A7,7,0,0,0,85,84.77c-.44-.58-.76-1.35-1.16-1.8a12.53,12.53,0,0,0-3.24-2.06c-1.16-.67-2.21-1.47-3.22-2C79,80.85,81.68,82,83.16,83.69c1.73,2.27,2.19,6.43.27,8.79-1.23-.12-2.74,0-3.14-.9-.28-.1-.44,0-.72-.17-2.42-2-5.18-3.67-6.55-6.73.49-.12.85.4,1.17.71a8.2,8.2,0,0,0,3.14,2.25,8.07,8.07,0,0,0,5.2.8A13.25,13.25,0,0,1,76.34,85.12ZM80.92,93c.88.14,1.37-.17,2.15.27a7.4,7.4,0,0,0-.54,2.6c-3.56.61-6.49-.36-8.25-2.33-1.51-1.7-1.68-4.24-2.43-6.73C74.54,89,77,92.38,80.92,93ZM67,63.24a35.58,35.58,0,0,1,1.89,4.58c.42,1,1.16,1.73,1.25,2.24.29,1.64-.56,3.38-.09,4.57-.62-.31-.92-1-1.43-1.43a6.4,6.4,0,0,1-1.44-1.35,7.56,7.56,0,0,1-.54-2.78A45,45,0,0,1,67,63.24Zm-4.75,1.08c.28.29.59,1.07.45,1.25,1.43,2.32,2.53,5.52,4.3,7.8.51.66,1.32,1.15,1.44,2,.66.88,2.07,1.44,1.79,3-2.79-1.16-4.26-4-5.74-6.91C63.45,69.36,62.1,67.29,62.26,64.32Zm-.63,5.11a20.22,20.22,0,0,0,9.15,9.95c.06.81.26,1.48.36,2.25-1.87.46-4.09-1.57-5.47-2.78a9.41,9.41,0,0,1-2-2.34,6,6,0,0,1-1.43-3c0-.36-.1-.83-.18-1.25s-.5-.62-.18-1C61.67,71.38,61.62,70.45,61.63,69.43Zm8.16,12.91c.5,1.29.1,2.55.45,3.77-5.17-2.24-8.15-6.67-10.76-11.48C62.34,77.42,65.37,80.81,69.79,82.34Zm-38-55.52c1.73,10.1,7.39,16.87,13.54,22.78,1,1,2,2,3.05,3a28.42,28.42,0,0,1,2.87,3.14c.68.79,1.61,1.47,2.43,2.25s1.45,1.74,2.24,2.42c.44.38,1,.59,1.44,1s.77.95,1.25,1.44a5,5,0,0,1,1.17,1.53c.42,1.2,0,3.23.18,4.57A79,79,0,0,1,45.3,58a42.41,42.41,0,0,1-3.86-4.58,42.2,42.2,0,0,1-3.67-4.84,42.82,42.82,0,0,1-6.1-21.89C31.74,26.71,31.75,26.76,31.76,26.82Zm-4.93-2.51A30.33,30.33,0,0,0,28,19a64.36,64.36,0,0,0,3-6.45c-1.69,6.39-1.37,16.7-.18,23.77C31.77,42.25,34.89,47,38,51.4c4.18,6,10.12,10.76,16.42,15,.79.53,1.69,1.08,2.77,1.7.87.5,2.39,1.21,2.69,1.8.46.86.28,2.35.54,3.23-.91-1.07-2.71-2-3.32-3.68-.08,1.61-.32,2.83-.26,4.39a46.34,46.34,0,0,1-6.91-3.32c-.77-.48-1.4-1.21-2.16-1.7a56.61,56.61,0,0,1-6.54-4.75c-2.69-2.36-4.73-5.21-7.18-7.9-4.95-5.43-7.23-14-8-23.41A26.47,26.47,0,0,1,26.83,24.31ZM22,41.71c3.28,6.47,8.1,14.33,13.64,19.55,1.46,1.39,3.1,2.7,4.66,4,4.63,4,10.36,6.83,16.59,9.33,0,1.53.15,3,.27,4.39A72.14,72.14,0,0,1,37.68,67.28c-.85-.72-1.61-1.51-2.42-2.34s-1.7-1.45-2.42-2.24c-1.5-1.63-2.77-3.51-4.22-5.29A33.77,33.77,0,0,1,25,51.58a43.14,43.14,0,0,1-4.75-14.09C20.81,39.22,22,41.46,22,41.71Zm-2.87.72c2.44,7.67,5.93,14.36,11,19.46,7.36,7.36,16.43,14,27,17.85a25.12,25.12,0,0,0,.36,3.41C45.94,81,36.12,74.72,28.53,68c-.53-.46-.91-1.19-1.44-1.7a34.81,34.81,0,0,1-5.92-8.08c-1-1.88-1.13-5.11-1.52-7.62A55.18,55.18,0,0,1,19,42.34C19.1,42.32,19.11,42.37,19.11,42.43Zm.63,20.36c.52.22,1.17.17,1.7.45s1,1,1.53,1.7c1.44,1.65,3.34,3.24,4.84,4.67a30.38,30.38,0,0,0,3.32,2.87c1.29.9,2.69,1.63,3.86,2.51,5.11,3.85,10.56,5.9,17.67,7.8.44-.18.91,0,1.71.09.15.54.07,1.3.18,1.89A79.92,79.92,0,0,1,43.6,81.36c-1.17-.45-2.39-.8-3.5-1.26s-2.2-1.27-3.32-1.88A65.65,65.65,0,0,1,27.45,72a34.73,34.73,0,0,1-3-2.24c-2.5-2.6-4.63-5.64-7.18-8.35C18.25,61.62,18.83,62.41,19.74,62.79ZM16.42,69A50.62,50.62,0,0,1,9.51,55.7c.47.38.19.77.54.72.12-.18.17.18.18.31v0c1.88,2.22,3.87,4.7,6,7a12.83,12.83,0,0,1,2.42,2.78c1.45,1.16,2.73,2.71,4.31,3.94s3.63,3,4.75,3.86A119.21,119.21,0,0,0,39.2,80.73c1.2.62,2.81,1.22,4.4,1.88.67.29,2.59.92,3.5,1.17a56.19,56.19,0,0,0,7.53,1.52,23.22,23.22,0,0,1-.08,3C41.86,86.57,30.75,82.43,22.79,76c0-.42-.3-.52-.72-.9s-.59-.43-1.34-1.17c-.48-.46-1-1-1.53-1.52A20.44,20.44,0,0,1,16.42,69Zm-2.06,8.34c1.2.38,2.41.69,3.58,1.08,2.36.79,5.36,1.85,7.09,2.51a155.2,155.2,0,0,0,14.8,5.29,63.74,63.74,0,0,0,14.72,2.6,29.1,29.1,0,0,0,.08,3.14c-.57,0-1.42.17-1.61-.27A29.87,29.87,0,0,1,45,91c-2-.39-4-.56-5.83-1a90.07,90.07,0,0,1-10.4-3.59C22,83.91,16.24,80.05,10.86,76.24A17.28,17.28,0,0,1,14.36,77.32Zm.45,6.91a19.29,19.29,0,0,1-2.25-1.71c-.2-.23-.27-.58-.45-.8-1.55-2-3.48-3.71-4.75-6,1.12.41,2.22,1.6,3.32,2.33.22.41-.14-.14-.18.09A5,5,0,0,1,12,79.2c.53.46,1.28.85,1.61,1.44,11.4,6.6,23,11.79,41,11.93.15,1,.46,1.87.54,3-2.46.26-5.51.33-8,.45a22.3,22.3,0,0,1-3.77-.36c-1.35-.16-2.71-.19-4-.45a81,81,0,0,1-8.88-2.42c-2.9-1-5.92-1.66-8.43-3a38,38,0,0,1-3.86-2.42c-.63-.44-1.27-.93-1.88-1.44S15.42,84.76,14.81,84.23ZM17,92.3a45.34,45.34,0,0,1,5.29-.09,30.13,30.13,0,0,1,4.13,1.35c3,.87,5.67,1.35,8.25,1.88,1.52.32,3.09.35,4.49.71,2.36.63,6.41.52,11,.55.07.76.35,1.32.44,2.06-14.6,1.43-27.82-2.13-38.93-6.28A38.52,38.52,0,0,1,17,92.3Zm1.43,8.17a70.18,70.18,0,0,1-8.25-4.22,13.9,13.9,0,0,1-4.39-3.5c3,.71,5.88,2,9.06,3,1.39.43,2.78.91,4.3,1.26s3.2.76,4.84,1.16a97.15,97.15,0,0,0,10.5,1.71c5.73.7,11.54.78,16.42-.45.35,1.56.92,2.9,1.34,4.39a35.94,35.94,0,0,1-6.55,1.08,68.87,68.87,0,0,1-11-.36,97.08,97.08,0,0,1-10.86-2A39.84,39.84,0,0,1,18.39,100.47ZM22,106.56c2.24-.14,4.43-.69,6.55-.71,3.59,0,7.75.81,11.66.62A69.76,69.76,0,0,0,50.69,105a6,6,0,0,1,1.79-.71,38.53,38.53,0,0,1,1.26,3.67c-2.75.74-6.57,2.15-9.33,2.24-1.24,0-5.18.66-7.54.72-8.5.21-15.63-.81-21.88-4C17.42,106.68,19.68,106.71,22,106.56Zm-1.17,7.63c-.47-.21-.88-.56-1.34-.81a25.2,25.2,0,0,1-3.59-2.06,44.24,44.24,0,0,1-4.48-3.86,35.74,35.74,0,0,0,16.68,5.11A68.51,68.51,0,0,0,44.68,111a39.3,39.3,0,0,0,5.11-1c1.24-.46,2.62-1.28,3.86-1.61A14.26,14.26,0,0,1,56,111.5c-1.82.82-4,1.45-6,2.24-.38.16-.7.47-1.07.63-3.36,1.39-7.88,1.56-12.3,1.79C30.89,116.47,25.13,116.07,20.81,114.19Zm1.53,8.88c.32-.22.57-.58.9-.81.5-.34,1.28-.53,2-.89,1.19-.64,2.21-1.33,3.59-2a14,14,0,0,1,1.88-.89,23.63,23.63,0,0,1,3.86-.27c1.18-.07,2.35,0,3.41-.09a22.6,22.6,0,0,0,3.32-.81c1.15-.29,2.39-.36,3.5-.63,1.43-.35,2.89-.93,4.3-1.43s2.76-1.31,4.22-1.8a3.8,3.8,0,0,1,.89,1.7A80.54,80.54,0,0,1,36,122.08c-6.33,1.71-12.83,4.08-20.1,4.85C17.7,125.45,20.14,124.59,22.34,123.07Zm-5.47,5.47c6.56-.72,12.46-3,18.21-4.75,2.38-.75,4.33-1.57,7-2.24a45.84,45.84,0,0,0,7.72-3.14c1.66-.79,3.3-1.77,4.76-2.61.57.62.91,1.48,1.52,2.07a4.34,4.34,0,0,1-1.89,1.07c-3.66,3.17-8.35,4.92-13.63,6.73a59.19,59.19,0,0,1-6.91,2.15C28.56,128.92,22.83,128.9,16.87,128.54ZM29.7,139.4a9.61,9.61,0,0,1-4-.19c4.74-1.27,8.77-3.61,12.74-5.73s7.61-4.74,11.3-7c.59-.91,1.84-1.32,2.78-2,1.82-1.27,3.35-3.07,5.11-4.31,0,.52,1,1,1,1.61A7,7,0,0,1,57,124.23c-.16.14-.45.18-.54.28-.5.53-.82,1.26-1.35,1.79-.79.79-2,1.58-3,2.51a26.27,26.27,0,0,1-5.47,3.95c-.13,0,0-.08,0-.18-2,1.45-5,2.61-7.44,4.12C36.42,137.43,33,139,29.7,139.4Zm13.63,6.45c-.53.13-1,.46-1.52.63a17.38,17.38,0,0,1-3.77.45,36.27,36.27,0,0,1-4.4-.09,40.67,40.67,0,0,1,6.82-3.05,50.63,50.63,0,0,0,11.66-8.25A95.36,95.36,0,0,0,61.36,125c1.69-.45,4.08.52,6.37.27-2.18,1.09-5.78.74-7.17,2.6.45.89,1.52,1.18,2.06,2a3.56,3.56,0,0,1-1.08,1.34,32.06,32.06,0,0,1-13.37,13A20.43,20.43,0,0,1,43.33,145.85Zm7.18,1.88a63.2,63.2,0,0,1,3.14-5.55,32.64,32.64,0,0,1,2.69-2.7,49.11,49.11,0,0,0,4.75-5.91,34.33,34.33,0,0,0,2.16-3.5,7.12,7.12,0,0,1,1,.63c-.22.83-.87,1.52-1.16,2.33A19.45,19.45,0,0,1,62,135.81c-.35.65-.65,1.37-1,2-.46.84-1.28,1.43-1.79,2.24-.18.28-.28.69-.45,1A29.55,29.55,0,0,1,54,147.29c-2.1,2.1-4,4.44-6.54,6.1A39.64,39.64,0,0,1,50.51,147.73Zm7.17,4a24.18,24.18,0,0,1-3.13,1.71c-1.79.65-3.79.79-5.65,1.61-.13-.39.59-.63,1-1a46.38,46.38,0,0,0,7.62-8.71,69.18,69.18,0,0,0,6.55-12c.18-.17.09-.17.27,0-.19-.82.57-1.29.63-2.15,1.56.77,3.32,1.35,4.84,2.15-1.07.52-3,.1-4.22.28.56,1.17,2.26,2,3.33,3C66.22,142.69,63.47,148.39,57.68,151.68Zm2.88,4.94A35.56,35.56,0,0,1,63.07,152c.83-1.49,1.8-3,2.6-4.57s1.2-3.51,1.88-5.29,1.78-3.44,2.24-5.3a13.33,13.33,0,0,0,2.87,1.26,23.62,23.62,0,0,1-5,10.31C65.27,151.2,63.22,154.18,60.56,156.62Zm2.15.53c-.17-.28.37-.56.62-.8a31.39,31.39,0,0,0,6.46-8.44,48.29,48.29,0,0,0,3.77-9.32v-.27a39.3,39.3,0,0,0,6,.36,8.86,8.86,0,0,1-.18,1.43,13.68,13.68,0,0,1-1.52.81c.32.27.92.27,1.25.54C77.66,150.43,72.51,156.25,62.71,157.15Zm15.16.18c-.42-1.9.43-4.49.81-5.92-.3-3.14.59-6.62,1.25-9.42v-.27a16.36,16.36,0,0,0,6.28.54c-1.8,3.09-2.95,6.7-4.84,9.69-.63,1-1.39,1.88-2,2.87C78.92,155.62,78.68,156.87,77.87,157.33Zm8.88-1.79c.14,0,.15.09.26.09A31.74,31.74,0,0,0,88.27,159a18.74,18.74,0,0,1-9,.45A19.48,19.48,0,0,0,86.75,155.54Zm-5,16.59c-.48-.52-.07-1.08-.09-1.7s-.36-1.06-.36-1.52a4.43,4.43,0,0,1,.36-1,7.6,7.6,0,0,1,.72-2.42c1.27.55,2.22,1.43,3.68,1.79A21,21,0,0,0,81.72,172.13Zm.81,2.43c1.94,0,3.72-.33,5.92-.18a8.3,8.3,0,0,1-5.56,2C82.84,175.68,82.46,175.35,82.53,174.56ZM80,178.77c5.36,1.26,11.16-.39,14-3.32a15.17,15.17,0,0,0,1.71-2.51,7.68,7.68,0,0,0,1.43-2.78c-3,4.24-6.73,8.57-14.35,7.62,2.87-.65,5.77-1.29,7.81-2.77,1.38-1,2.19-3.12,2.68-4.76.14-.55.65-.73.63-1.43-1.19,1.25-2.23,3.09-3.41,4.22,0,0-.11,0-.09.17-2.41-.47-5-.16-7.44-.17,1.68-3.47,4.93-5.37,8-7.46-.84.15-2.19.56-3.23.82a12.75,12.75,0,0,1-6.18-4.31c2.78,0,6.6-.07,9.32-1,.35-.12.72-.45,1.08-.45.59,0,2.24,1.23,2.51,1.26s-.68.16-1.17.27a17.39,17.39,0,0,1-4.12.63,18.76,18.76,0,0,1,3,2.33,3,3,0,0,0-1,2.15A6.47,6.47,0,0,1,89,168.55a6.87,6.87,0,0,0-1.62,1.61c-.62.67-1.54,1.1-2,2,1.07-.18,1.94-1.14,3-1.61.74-.32,1.57-.5,2.33-.9a13.18,13.18,0,0,1,2.07-1.07c.92-.27,2-.18,2.5-1,1.31.08,2.9.5,4.14.09a53.1,53.1,0,0,1-2.25,10.85,12.52,12.52,0,0,0,5.56-1.88,30.45,30.45,0,0,0,4.85-2.78c.93-.75,1.46-1.85,2.33-2.6a12.9,12.9,0,0,1,.54,1.88c-1.53,2.33-2.31,7.78-1.08,10.85a4.73,4.73,0,0,0,.36-1.88,26.78,26.78,0,0,1,3.86-.27,8.64,8.64,0,0,1-4.67,3.5c-1.28.34-5.18.28-5.38-.81-.1-.56.66-1.42,1-2a14.09,14.09,0,0,1,2.24-3.14,10.64,10.64,0,0,0-5.11,5.65c-.87,2.27-1.7,5.46-.72,8.34-1.44-1.77-2-7.24-.54-9.86a27.79,27.79,0,0,1,7.45-8.61,48.1,48.1,0,0,0-6.19,5c-2.51,2.41-4.32,7.84-2.78,12.65-.19.17-.75-.43-1-.81a8.94,8.94,0,0,1-1.43-3.32,17.46,17.46,0,0,1,.17-2.24,7.13,7.13,0,0,1,.18-2c.82-2.42,2.9-4.17,4.31-5.92-4.71,2.58-7.33,7.4-9.87,12.37a12.4,12.4,0,0,1,.63-6.45,25.29,25.29,0,0,1,1.34-3.41c.77-1.28,2.08-2,2.79-3.14-3.29,2.85-7.2,6.78-6.28,13.54a14.12,14.12,0,0,1,.17-10.4c1.17-.72,2.57-1.2,3.42-2.25a14.41,14.41,0,0,1-5.75,1.89c-.13,0,0,.08.08.08A16.78,16.78,0,0,1,80,178.77Zm16.14,14.71a7.25,7.25,0,0,0,4.4,2.88c-1.72.79-3.26,1.22-4.94,2.06a13.53,13.53,0,0,0,.73-3C96.35,194.74,96.18,194.13,96.16,193.48ZM55.08,174.56c2.68,0,6,.18,7.45,1.7-.23.5-.71.38-1.08.63a6.1,6.1,0,0,0-1.52,2.42,14.2,14.2,0,0,0-5-4.57C54.92,174.64,55.08,174.67,55.08,174.56Zm1.26,3.77c1,.71,1.5,2,2.33,2.87-1.26,3.34,1.68,5.05,3.77,6.18.35,0,.53-.15,1.07-.18.84.81,1.8,2.68,1,3.68-.58.74-1.51.82-2.87,1.17-1.9.49-3.31,1.15-4.58,0,.16-.65-.28-1.26-.26-2.07,0-1.58.83-2.94-.27-4-.62-.61-1.66-.48-2.24-1.26C55,182.54,55.28,180.22,56.34,178.33Zm-3.86,1.34a3.43,3.43,0,0,0,1.17-.18c-.81,2.06-1.49,4-1.26,5.65-.82.33-2.92.44-4,.72A10.69,10.69,0,0,1,52.48,179.67Zm-5.83-1.43a25.27,25.27,0,0,0-1.17,8.16A21.62,21.62,0,0,0,42.61,188c-.93-2,.43-3.78.81-5.56.18.05.69-.69.81-1.25C45.26,180.44,45.38,178.76,46.65,178.24Zm-4.4-3.77c1.42-.83,3.27-1.68,4.94-1.43A17.55,17.55,0,0,1,45,175a7.28,7.28,0,0,1-1.35,1.52c-1.47-.14-2.88,1-4.4.45A11.54,11.54,0,0,1,42.25,174.47Zm-3.85,3.31a34.82,34.82,0,0,1,5.47-.53,7.05,7.05,0,0,1,.63,1.7,15.81,15.81,0,0,0-2.87,4.58c-1.67.21-2.93,1.21-4.3,1.43C35.73,183,37.33,179.2,38.4,177.78Zm-1.8,11.58a2.9,2.9,0,0,1,.09-3.41c1.81-.34,3.05-1.26,4.58-1.89.28,1.06-.38,2.73-.45,4.22A18.47,18.47,0,0,1,36.6,189.36Zm2.6,6.1a8.23,8.23,0,0,1-1.79-5.21,29.35,29.35,0,0,1,3.41-1.52c-.07.34.11.43.09.72C38.47,190.55,39.88,194.24,39.2,195.46Zm6.91,6.46c-.81-1.2-2.22-1.8-2.51-3.5A2.87,2.87,0,0,0,46.29,197c-1.83.28-3.59.53-5-.53-.07-2.18-.58-3-.27-4.94a14.77,14.77,0,0,1,4.48-2.87,7.27,7.27,0,0,0,0,2.42c1.69.69.86,2.91,1.26,4.84.23,1.11,1.18,1.35,1.43,2.34.49.26.73.77,1.17,1.07C48.33,200.25,47.21,201.07,46.11,201.92ZM49.88,205c-.84-.07-2.58-1.33-2.6-2.07s1.54-2.08,2.06-2.6c0,.5.67.91,1,1.35C50,203,50.37,203.73,49.88,205Zm4.67.53a4.34,4.34,0,0,1-3.6-.09c0-1.1-.54-2.43-.08-3.4.32-.21.74.11,1.25,0a5.41,5.41,0,0,0,2.16,1.61.22.22,0,0,0,0-.12l-.08-.06a.1.1,0,0,1,.08.06A2.75,2.75,0,0,1,54.55,205.5Zm.62-.63c-.13-.52-.26-1.05-.36-1.61h.54c.8-1.07,2.32-.17,3.5-.45A7.91,7.91,0,0,1,55.17,204.87Zm35.16-6.63a18.44,18.44,0,0,1-4.48-.36c-1.54-.15-3-.69-4.58-.81-3.06-.23-5.8.57-8.25.45.32.34-.38,0-.09.18-1.83.42-3.53.7-5.2,1.17-1.43.4-2.75,1.12-4.13,1.43-.6.13-1.83.23-3,.36a34.36,34.36,0,0,1-8.89,0c-.45-.89-1.49-1.2-1.7-2.33-.4.12-.46,0-.81-.09-.46-.76-1.14-2.09-.54-2.87a.09.09,0,0,0-.18,0c0-.8-.09-2.24-.09-3.14,1.11-.06,3.17,0,4.76-.18,0-.45-1.15-.34-1.26-.09-.79-1-2.78-.29-4-.9a7,7,0,0,1,0-3.86c1.65-1.32,5.54-1.74,7.09-.09-.4,1.42-.82,2.52-1.34,4.13.71.28.6-.92,1.34-.9,0,.86.52,1.28.45,2.25a9.84,9.84,0,0,0-4.39,2.15c1.58-.27,2.45-1.25,4.21-1.35a1.26,1.26,0,0,0,.27.72c2.19,1.89,5.55,1.81,9.06,2.51,2-.61,3.53-1.61,5.56-2.15-.91-.31-2,.41-3.14.54a25.61,25.61,0,0,1-4.66-.27A9.39,9.39,0,0,0,67.91,193a5.73,5.73,0,0,0,2.33-3.76c.25-2-1.88-2.49-2.51-4a11.3,11.3,0,0,0-.09-1.34c-1.63,2.72,2.41,4.87.63,7.71,0-3-1.2-5.79-3.59-6.91.44-1.68,1.73-2.51,2.69-3.68.25-.12.86-.21.63-.53a9.13,9.13,0,0,0-4.85,4.12c-2.3-1.48-2.86-5.19-1.52-6.19-.33,0,.45-1.51.9-1.79a9.23,9.23,0,0,1,1.34-.27c.47-.14.87-.45,1.17-.45,1.49,0,2.27,1.8,3.32,2.24.42,1.31,0,2.33.27,3.41a13.5,13.5,0,0,0,1.88,2.6,20.63,20.63,0,0,1,2,2.52c.84.32,1.48,1.19,2.25,1.61.32.18.78.06.89.45.06.08.11.16,0,.18-1.37.42-3.78,1.28-5.56,1.88,1.09.46,2.25-.07,3.23-.18a21.83,21.83,0,0,0,5.65-1.34,51.36,51.36,0,0,1-7.62,4.84,30.52,30.52,0,0,0,10.23-4.75c.07-.26.18-.47.26-.72a8.66,8.66,0,0,0,3.59-6.46c.58.06,2,.11,2.69.09-.9,1.89-.72,4.4-.72,6.55.15-.3.33.82.54,1.52a19,19,0,0,0,1.35,3.32c.31.59,1.25,1.89,1.7,1.89.68,0,.45-.68.63-1.35.43-1.59,1.82-3.46,2.51-4.93.35,1.25-.14,3,.18,4.39.08.32.34.64.36.9C94.85,197,92.27,197.92,90.33,198.24Zm-2,19.82c-2.27-6.46,2.93-11.91,7.09-14.53-.53,1-1.75,1.58-2.51,2.51A20.84,20.84,0,0,0,88.36,218.06Zm1.08,4.49c-.29-1.27.92-2.22,1.34-3.23a17.64,17.64,0,0,0,.54,5.2C91,223.94,89.64,223.44,89.44,222.55ZM108.72,240a16.83,16.83,0,0,0,4.4,2.6,18.35,18.35,0,0,0,3.14,1.35,33.56,33.56,0,0,0,11.3.62c.16,0,.18.09.09.1-4.59,2.19-11.16,3.14-16.5,1.16a21.13,21.13,0,0,1-4.31-2.6,20.15,20.15,0,0,1-7.27-8.62c1.84,0,3.35-.63,4.58.46s1.9,2.61,3.14,3.77C107.72,239.18,108.28,239.55,108.72,240Zm3.41-11.12a11,11,0,0,1-2,1,9.06,9.06,0,0,1-2.15.72c.16-1.12,1.16-1.82,1.79-2.87,2.56-4.27,1.69-12.18.09-17a20,20,0,0,1,3.86,11.67C113.75,225,113.59,227.58,112.13,228.83Zm1.26-20.19a15.91,15.91,0,0,1,3.68-4.75c1.59-1.35,3.6-2.21,5.11-3.5.16,0,.18.09.09.09-1.52,2-3.6,3.63-5.29,5.56a28.61,28.61,0,0,0-4.13,6.55A6.17,6.17,0,0,1,113.39,208.64Zm19.46,12.29a31.34,31.34,0,0,1-.18,3.14,5.83,5.83,0,0,1-3.14-2,7,7,0,0,1-2.32-6.28c.53-5.21,3-9.35,4.93-12.92a45.65,45.65,0,0,1-1.53,7.72c-.72,2.45-1.76,4.72-2.6,6.91,2.53.54,4.15-1.35,5.92-2.16C134,217,133,218.74,132.85,220.93Zm13.64-5.47c1.9.79,3.29,2.57,6,2.24a14.24,14.24,0,0,0-1.44-3.41,27.42,27.42,0,0,1-1.16-3.59,68.26,68.26,0,0,1-1.61-7.71c2,3.28,4.47,7.79,5,12.83a7,7,0,0,1-2.32,6.37,5.8,5.8,0,0,1-3.15,2A42.62,42.62,0,0,0,146.49,215.46Zm23.86,14.44a11.78,11.78,0,0,1-2-1c-1.81-1.55-2.06-7.1-1.34-10.41s2.53-5.84,3.5-7.81A46.77,46.77,0,0,0,169,221.29c0,4.14,2.06,6.86,3.59,9.33A8.17,8.17,0,0,1,170.35,229.9ZM163.53,206c-1.69-1.93-3.84-3.47-5.38-5.47a22.78,22.78,0,0,1,7.27,5.65,12.22,12.22,0,0,1,1.7,2.51,6.17,6.17,0,0,1,.54,4A31.9,31.9,0,0,0,163.53,206Zm8.17,38.58a17.06,17.06,0,0,1-8.35,2.42,29.35,29.35,0,0,1-7.27-1.08A31.94,31.94,0,0,1,153,244.7c-.22,0-.15-.11,0-.08a33.48,33.48,0,0,0,11.21-.63,20.13,20.13,0,0,0,9-5c1.29-1.16,2.1-2.86,3.23-3.86s2.55-.52,4.57-.54C179.13,239.11,175.39,242.42,171.7,244.62Zm19.37-22c-.21.9-1.48,1.15-1.79,2.06a26.32,26.32,0,0,0,.44-5.29C190.16,220.44,191.36,221.36,191.07,222.64Zm1-11.31a11.19,11.19,0,0,1,.18,6.82A20.85,20.85,0,0,0,185,203.62,18.28,18.28,0,0,1,192.06,211.33ZM225.34,205a9.38,9.38,0,0,1-3.68-2c1,.12,2.72-.7,3.41.36h.62C225.59,203.91,225.47,204.44,225.34,205Zm4.21.53a4.35,4.35,0,0,1-3.59.09,2.85,2.85,0,0,1,.29-2,.11.11,0,0,0,0,.06,4.17,4.17,0,0,0,2.16-1.53c.55.09.94-.19,1.34,0A13,13,0,0,1,229.55,205.5Zm-3.27-2a.3.3,0,0,1,0-.08A.1.1,0,0,1,226.28,203.52Zm4.35,1.54c-.46-.6-.15-1.67-.27-2.34-.07-.38-.26-.56-.18-.89.14-.6,1-.68.9-1.35.9.26,1.56,1.55,2.15,2.42A3.67,3.67,0,0,1,230.63,205.06Zm10.76-9.51c-.41-.29-.17-.77-.45-.9.42-1.15.45-4.47-1.34-5.11,0-.29.15-.39.09-.72a32,32,0,0,1,3.41,1.52A9.15,9.15,0,0,1,241.39,195.55Zm2.43-6.1a19.78,19.78,0,0,1-4.13-1.08c-.19-1.53-.45-2.87-.63-4.22,1.71.52,2.86,1.57,4.76,1.89A2.71,2.71,0,0,1,243.82,189.45Zm-.54-4.4c-1.46-.18-2.69-1.21-4.4-1.43A15.94,15.94,0,0,0,236,179a6.3,6.3,0,0,1,.63-1.7,32.6,32.6,0,0,1,5.47.54C243.2,179.32,244.69,182.91,243.28,185.05Zm-10-11.84c0-.16.09-.18.09-.09,1.65-.23,3.52.67,4.84,1.44a11.19,11.19,0,0,1,3.06,2.51c-1.53.53-2.93-.59-4.4-.45A34,34,0,0,0,233.32,173.21Zm3.68,9.33c.57,1.68,1.68,3.4,1,5.56-1-.59-2-1.14-3-1.7a21.68,21.68,0,0,0-1.08-8.07C235.3,179.22,236.12,181.66,237,182.54Zm-2,8.7a8.07,8.07,0,0,0,0-2.42c1.67.39,3.17,1.73,4.48,2.78.3,1.83-.22,2.9-.27,4.93-1.47,1-3,1-5,.45a2.72,2.72,0,0,0,2.69,1.53c-.3,1.7-1.7,2.3-2.51,3.5-1.12-.8-2.12-1.72-3.23-2.52.39-.35.58-.91,1.16-1.07.13-1,1.19-1.28,1.44-2.33C234.21,194.2,233.23,191.92,235,191.24Zm-7-11.48a10.66,10.66,0,0,1,4.12,6.19c-1.06-.23-3.09-.46-3.94-.63a13.84,13.84,0,0,0-1.35-5.65C227.1,179.5,227.54,179.89,228,179.76Zm-4.58,12.38a13.1,13.1,0,0,1-1.34.72c-1.84-.61-5.87-.41-6.37-2.43-.27-1.06.52-2.38,1.26-3.14,1,.47,1.24-.11,2.15-.62a6.8,6.8,0,0,0,1.61-1,3.71,3.71,0,0,0,1.08-4.31c.67-1,1.4-2,2.15-3,1.38,1.65,1.42,4.25,2.24,6.37-.51.63-1.49.78-2.24,1.17C222.7,187.65,224.09,190.34,223.45,192.14Zm2.16-17.4c-2,1.23-4.05,2.92-4.94,4.66-.66-1.22-1.25-2.51-2.69-3C219.33,174.79,223,174.55,225.61,174.74ZM209.1,194.29c-.28-.72-1.23-.76-1.88-1.07-2-1-3.68-2.76-5.66-3.77,2.54.72,6.09,1.75,8.89,1.52a55.31,55.31,0,0,0-5.38-1.88c.05,0-.13-.28-.27-.09,0-.48.51-.42.89-.63a13.66,13.66,0,0,0,4.22-4.12,16.7,16.7,0,0,0,2-2.52c.35-1.12-.19-2.24.27-3.4,1.06-.66,1.85-2.27,3.23-2.34.39,0,.76.32,1.16.45,1.12.34,1.86.17,2.34,1.44.06.18-.08.46,0,.62.18.42.23,0,.45.54a11.75,11.75,0,0,1,.27,1.62c.23,1.14-1.32,3.59-2.16,4a10.88,10.88,0,0,0-4.93-4.21c-.24.42.33.48.63.63,1,1.16,2.25,2,2.69,3.67a6.91,6.91,0,0,0-3.5,6.91c-.83-.61-.63-2.74-.09-3.59a5.85,5.85,0,0,0,1-2A5,5,0,0,0,213,184a2.85,2.85,0,0,0-.18,1.26,13.69,13.69,0,0,1-2.42,2.87,5.61,5.61,0,0,0,2.15,5c.35.24,1.36.84,1.79,1.07,1.1.57,2.4.42,3.86.54-2.44.78-5.64.12-7.8-.27,1.85.71,3.62,1.52,5.47,2.25,2.38-.68,5.24-.4,7.08-1.26,1-.45,2.14-1.14,2.34-2,1.72.11,2.62,1,4.12,1.35a8.85,8.85,0,0,0-4.3-2.15c-.07-1,.41-1.38.45-2.25.7,0,.65,1.12,1.25.9,0-1.19-1.06-2.27-.9-3.32-.06-.32-.36-.42-.35-.81,1.55-1.65,5.43-1.23,7.08.09a7,7,0,0,1,0,3.86c-1.2.63-3.25-.09-3.94.9-.2-.2-1.18-.34-1.35,0a33,33,0,0,0,4.76.27,20.7,20.7,0,0,0,0,3.05c0,.14-.12,0-.28,0,.59.87,0,2.16-.53,3-.32,0-.4.26-.72.09-.36,1-1.28,1.46-1.79,2.33a33.59,33.59,0,0,1-8.79,0c-1.11-.13-2.23-.2-3-.36-1.39-.28-2.71-1-4.13-1.44a49.13,49.13,0,0,0-5.3-1.07c.33-.33-.33,0-.08-.18-2.39,0-5.11-.76-8.17-.54-1.53.11-3,.65-4.57.81-2.85.29-6,.76-7.9-.9a3.44,3.44,0,0,1-1-2.33c0-.32.26-.54.36-.9.33-1.31-.1-3.07.08-4.48a23.72,23.72,0,0,1,2.61,4.93c.17.63,0,1.28.53,1.35s1.5-1.22,1.8-1.8.42-1.42.72-2.06a8.44,8.44,0,0,0,.62-1.35c.17-.54.39-1.85.55-1.43,0-2.17.24-4.69-.73-6.55.56-.2,2.14,0,2.7-.18a8.63,8.63,0,0,0,3.59,6.46c0,.28.28.25.18.63A33.35,33.35,0,0,0,209.1,194.29Zm-10.22-22.07a21.4,21.4,0,0,0-4.4-4.75,28.42,28.42,0,0,0,3.59-1.89c.82,1,.59,2.4,1.16,3.33C198.72,170,199.16,171.05,198.88,172.22Zm-1.26,4.22a8.25,8.25,0,0,1-5.56-2c2.19-.16,4,.16,5.91.18C198.05,175.44,197.67,175.77,197.62,176.44ZM199,162.09a12.11,12.11,0,0,1-6.18,4.4c-1.05-.33-2.26-.51-3.23-.91,2.95,2.23,6.32,4,8,7.54-2.39,0-5-.29-7.45.18-.15-.08.07-.39-.09-.18-1.34-1.16-2.13-2.89-3.31-4.21-.25.51.37.93.53,1.34a12.92,12.92,0,0,0,1.62,3.77c.32.42.84.56,1,1.07a20.06,20.06,0,0,0,7.89,2.69c-7.4,1.14-11.43-3.22-14.27-7.53a5.54,5.54,0,0,0,1.26,2.69,12.2,12.2,0,0,0,9.42,6.19,14.61,14.61,0,0,0,6.37-.36c-1.91,1.31-5.43,1.86-7.71,2,0-.1.18-.06.18-.19a12.94,12.94,0,0,1-5.75-1.87c.54,1,2.23,1.53,3.32,2.23,1.43,2.83,1.35,7.1.27,10.41.69-6.66-2.91-10.53-6.37-13.63.65,1.25,2,2,2.78,3.22a25.51,25.51,0,0,1,1.35,3.41,14.5,14.5,0,0,1,.72,6.46c-2.66-4.86-5.22-9.74-9.87-12.38,1.24,1.78,3.37,3.44,4.21,5.92a7.79,7.79,0,0,1,.19,2,7.54,7.54,0,0,1,0,3.14,11.07,11.07,0,0,1-1.8,3c-.09.09-.28.57-.45.27,1.5-4.71-.19-10.16-2.78-12.65a61.15,61.15,0,0,0-6.1-5,29.73,29.73,0,0,1,7.36,8.61c1.36,2.51.93,7.68-.45,9.95.88-3.93-.14-9.35-2.87-11.93-.94-.88-2.15-1.31-3.05-2.24a20.77,20.77,0,0,1,2.24,3.23c.32.54,1,1.37,1,1.88-.12,1.12-3.3,1.23-4.85,1a8.46,8.46,0,0,1-5.11-3.41c-.06-.08-.11-.16,0-.18a27.53,27.53,0,0,1,3.77.27,11.65,11.65,0,0,0,.27,1.88,7.1,7.1,0,0,0,.72-3.67,14.42,14.42,0,0,0-1.71-7.18c.13-.65.36-1.2.45-1.88a23.51,23.51,0,0,0,12.83,7.36A56,56,0,0,1,181,167.74a11,11,0,0,0,2.34.18c.66-.08,1.17-.42,1.7-.27.33.09.49.46.81.63a9.46,9.46,0,0,0,1.79.36,14.89,14.89,0,0,1,2.16,1.07,41.9,41.9,0,0,1,5.19,2.61,13.67,13.67,0,0,0-5.64-4.85,2.57,2.57,0,0,0-1-2.15,9.57,9.57,0,0,1,3-2.33c-1.81-.12-3.66-.7-5.47-.9a8.48,8.48,0,0,1,1.43-.72c.36-.18.76-.6,1.17-.63s.6.29,1.08.45A28.3,28.3,0,0,0,199,162.09Zm-14,36.42c-1.78-.75-3.15-1.35-5-2a7.31,7.31,0,0,0,4.31-3A8.77,8.77,0,0,0,185,198.51Zm-14.08-6.64c1.71-.42,4.22-.79,6.09-1.35a14.7,14.7,0,0,1-.62,4.49,38,38,0,0,1-5.38-.9A1.4,1.4,0,0,0,170.89,191.87Zm-2.78-3c.37-.29,1-.28,1.34-.63-1.91-1-4.38-1.72-6.28-3.32a11.9,11.9,0,0,1-4.39-6.55c-.36-1.81.5-3,1.34-4.39s1-2.62,3-2c.44,1.91-1.13,2.86-1.88,4.13.92,1.53,3.89,1.64,6.1,1.34a1.36,1.36,0,0,1,.45,1.52c-2.83.2-4.7-.57-7.09-.8a16.93,16.93,0,0,0,6.19,7.71,14.65,14.65,0,0,0,10,2.33,7.9,7.9,0,0,1,.19,1.53C174.24,190.23,171.1,189.36,168.11,188.91Zm10.13-33.55c.11.28-.14.22-.18.36,2.68,2.78,7.51,2.92,11.93,1.7-.48,1.08-1.94,1.87-3,2.33a10.28,10.28,0,0,1-5.12,1.26,19,19,0,0,1-6.37-2.15c2.39,2.64,6.57,4.25,10.85,5.29-2.46,1.65-6.36,1.7-9.23.72.4.67,1.79,1.14,2.6,1.7a44.36,44.36,0,0,0,1,9.78,60.91,60.91,0,0,1-7.9-5.74c-1.21-2.12-2.2-3.06-3.32-5.47,0,4.23.37,9.6-3.5,9.69a5.36,5.36,0,0,0,.27-3.5,7.42,7.42,0,0,0-.8-2.69,15.87,15.87,0,0,0-2.87-3.06c.67-.54,1.18-1.26,1.88-1.79,1.51.94,2.25,2.66,3,4.4a8.64,8.64,0,0,0-1.88-5.29,35,35,0,0,0,7.44-8.53c1.74.83,2.64,2.81,4.49,3.68a18.61,18.61,0,0,0,1.79.54,11.9,11.9,0,0,0,5.92.45,29.23,29.23,0,0,1-7.17-1.8c-1.43-1.3-3.51-1.93-4.58-3.58a15.45,15.45,0,0,1,1.88-2.87A29.83,29.83,0,0,0,178.24,155.36Zm3.59-20.63c-.82,1.31-1.9,2.68-2.78,4v.8c-1.08,2.13-2.43,4.12-3.59,6.19a89.85,89.85,0,0,1-5,8.44c-.29.4-.78.67-1.08,1.07-.76,1-1.39,2.18-2.24,3.23s-2.24,2-3.32,3.23c-.58,0-.67.52-1.34.45-.38-.12.16-.76.27-1-3.92,2.18-6.21,6-8.17,10.14,1.41-1.38,2.41-3.16,5-3.32.91-.7,1.86-1.37,2.69-2.15,1.12,1.09,1,2.29,1.79,3.76-.4.2-.69-.7-1.26-.81-1.47-.27-3.62,1.13-4.39,1.89a13.08,13.08,0,0,0-2.6,4.58,8.17,8.17,0,0,0,.18,4,16.43,16.43,0,0,0,1.07,3.23c2.4,4.49,7.92,6.73,12.74,8.07-5.58.3-9.86-2.81-12.64-5.83,1.33,1.95,2.27,4.2,4.3,5.48a21,21,0,0,0,3.14,1.43,11.3,11.3,0,0,1,3.14,1.35c-2.67.62-4.74-1.29-6.64-2.43a13,13,0,0,1-3.05-2.15c-.8-.87-1.35-2-2.16-2.78a14.18,14.18,0,0,0,2.25,4,12.32,12.32,0,0,0,1.79,1.88c.46.32,1.23.49,1.8.81s1,.75,1.52,1a59,59,0,0,0,6.73,2.16c4.48,1.45,9.3,2.6,12.74,4.75a51,51,0,0,1,5.2,3.77,22,22,0,0,1-3.32-2,46.44,46.44,0,0,0-11.75-4.4c8.61,3.83,16.35,8.53,17,20.36-.75-2.52-2.37-4.15-3.86-5.92,2.07,6.34,1.28,18.6-5,20.27a7.66,7.66,0,0,1-2,.09,19.24,19.24,0,0,1-5.47-2,13.49,13.49,0,0,1-2.51-4.31c-1.3-5.12.78-11,1-15.78.56,1.8.28,3.82.63,5.92.59,3.55,1.17,7.79,3,9.86,1.25,1.38,4.08,3.24,6.19,2.25a7.63,7.63,0,0,0,2.33-2.51,8.57,8.57,0,0,0,1.35-3.41c-.63.12-.5,1-.72,1.52-.85,2.14-4.31,5.28-6.64,2.42.68-.67,1.59-.93,2.25-1.7,1.79-2.1,2.6-6,2.87-9.06a23.76,23.76,0,0,0-.18-2.87,8.3,8.3,0,0,0-.27-1.52,17,17,0,0,0-3-5.84c-2-2.2-5.79-3.44-8.79-4.84a69.48,69.48,0,0,1-8.8-4.84c-4.51-3-8.48-7.12-8.88-14.36a17.36,17.36,0,0,1,.18-5.65,18.54,18.54,0,0,0-1.34,5.39,11.34,11.34,0,0,0,.81,5.2,13.32,13.32,0,0,0,2.69,5.29,18.75,18.75,0,0,0,5.11,4.57c1,.59,2.2,1.12,3.32,1.71s2.41.9,3.5,1.53c2,1.15,4,2.74,6.37,3.58.68,1,1.84,1.44,2.69,2.24s1.71,2,2.69,2.88a24.75,24.75,0,0,1,1.25,4.21c.11.83-.11,1.74.55,2.25.25,5-1.39,8.12-4.14,10.13-.75-.49-.68-1.83-1.16-2.6a10.05,10.05,0,0,0,2-4.76c.36-3-1.39-5.87-2.6-7.71,1.16,2.83,2,7.19.27,10.05-.49-2.16-.93-4.41-1.25-6.73a20.64,20.64,0,0,0-1.62-6.37c-1.17.56-1.67,1.79-2.69,2.51-1.87-5.58-6.51-7.69-10.85-10.67-1.08-.74-2.13-1.37-3.23-2.15a6.33,6.33,0,0,1-2.16-2.25,16.38,16.38,0,0,1-3.22-10.4c-1.57,6.12,1.55,10.52,3.85,14.17,2.07,2.85,4.45,5.25,6.73,8.07a44.47,44.47,0,0,1,4.4,6.46,6.68,6.68,0,0,1,1.07,2.6c0,.75-.78,1.57-.9,2.51-.52,4.11-.39,8.57,1.35,11.75a37,37,0,0,1-4.13,6.73c-1.46-.17-2.83.43-4.39.45-.11-.47,1.1-.77,1.52-1.16a20.28,20.28,0,0,0,1.53-2.07c2.53-3.26,3.4-9.93,2-15.16a22.67,22.67,0,0,0-1.34-3.13c-.23-.53-.13-.87-.27-1.17a13.48,13.48,0,0,0-.9-1.26c-2.16-3.24-4.68-7.1-7-10.14,1.73,3.5,3.74,6.72,5.73,10,1.17,3.07,2.88,7.18,2.88,11.84a22.53,22.53,0,0,1-.9,6.19,8.68,8.68,0,0,1-2.69,4.3,10.75,10.75,0,0,1-2,1,6.63,6.63,0,0,1-6.91-2.16c.17-1.14-.75-1.7-.9-2.78s.08-1.88-.09-2.78c.87.73,2.39.89,3,1.62a2.92,2.92,0,0,1-2.24.44c.31.64,1.39.5,1.88.45a6.38,6.38,0,0,0,4.94-3.5c1.12-2.14,1-4.78,1.52-6.9-.21-.58-.5-2.17-.18-2.42,0-.22-.4,0-.27-.27A21.75,21.75,0,0,0,155.9,210c.8,2.94,1.84,8.3.37,12.11-.52,1.34-2.23,1.28-3.32,2.24.77-1.55,2.05-2.94,2.6-4.84a16.24,16.24,0,0,0,.45-5.74,18.33,18.33,0,0,0-1.62-5,42.12,42.12,0,0,0-2.24-4.3c-2.17-3.65-4.17-6.88-4.75-11.3a27.4,27.4,0,0,1-.1-5.3c-.88,2.91-1,6.77-1.16,9.69-.51-.12-.67-.59-.72-1.16A39.53,39.53,0,0,0,149.9,214c.47.93,1.31,1.62,1.52,2.6-2.23-.86-5-3.28-7-5.3-.59-2.13-1.67-4.37-2.06-7-.26,1.45.52,3,.81,4.66.17,1,.18,2.05.36,3.05.39,2.23,1,4.73,1.52,7,0,.12-.06.13,0,.27.8,1.66.37,5.24.36,7.27a61.63,61.63,0,0,1-1.52-7.81c-.32,1.07.1,2,.17,3.05a69.85,69.85,0,0,1-.17,7.26c0,1.18-.14,2.28-.27,3.32a18,18,0,0,1-.9,3.15c-.4,1.24-.5,2.5-1,3.76-.42,1.1-.54,2.36-1.43,3.23-1.63-1.93-1.79-4.6-2.51-7a18.81,18.81,0,0,1-.9-3.24,29.07,29.07,0,0,1-.27-3.23,69.82,69.82,0,0,1,.09-10.4c-.68,2.46-.75,5.37-1.62,7.8a10.37,10.37,0,0,0-.17-2,37.11,37.11,0,0,1,.54-5.56c.75-3.21,1.33-6.76,1.88-10,.29-1.66.94-3.06.9-4.75-.56,2.48-1.51,4.89-2.16,7-2,2-4.76,4.43-7,5.29a8.9,8.9,0,0,1,1.52-2.51,43.1,43.1,0,0,0,4.58-17.76c-.23.42-.23,1.08-.81,1.16a55.17,55.17,0,0,0-1.08-9.68c-.09,1.92.08,3.3-.18,5.28-.79,6.05-4.58,10.24-7,15.61a18.33,18.33,0,0,0-1.62,4.94,13.86,13.86,0,0,0,3.14,10.58c-1-.68-2.89-.79-3.41-2.15-1.38-3.61-.6-9.1.45-12.11a19.23,19.23,0,0,0-2,7.17q.07.36-.27.27c.52.28-.19,1.79-.18,2.43,0,.38.23.92.27,1.43.36,4.43,2,9.28,7.17,9,.3,0,.88.31.9-.27a5.42,5.42,0,0,1-2.24-.44c.55-.88,2.2-.93,3-1.71-.16.88,0,1.72-.09,2.69-.15,1.15-1.05,1.71-.9,2.87a6.5,6.5,0,0,1-6.81,2.15c-4-1.13-5.61-6.16-5.66-11.39,0-4.64,1.78-9,2.87-11.93,2-3.2,3.94-6.47,5.75-9.87-2.24,2.78-4.78,6.72-7,10-.2.3-.41.82-.63,1.08a17.39,17.39,0,0,0-1.88,4.57c-1.31,5-.7,11.72,1.88,15.07a15.2,15.2,0,0,0,3.23,3.23c-1.61,0-3-.62-4.49-.45a43.86,43.86,0,0,1-4.12-6.64c1.64-3,1.86-7.48,1.34-11.75-.12-1-.82-1.7-.9-2.51-.09-1,1.13-2.84,1.71-3.94,1.43-2.69,3.19-4.14,4.84-6.28.44-.58.82-1.11,1.26-1.62,1.37-1.57,3.07-3.45,4.39-5.29.94-1.3,1.73-3,2.6-4.49,1.66-2.85,2-5.71,1.35-9.77a19.38,19.38,0,0,1-2.15,8.79,16.53,16.53,0,0,1-2.33,3.23c-1.32,1-2.82,1.81-4.22,2.78-4.23,2.9-9,5.1-10.85,10.67-1-.73-1.55-1.86-2.6-2.51-.78.75-.88,2-1.08,3-.62,3.23-1.15,6.73-1.79,10.05-1.85-2.68-1-7.22.17-10-2.51,2.45-3.77,9.35-.63,12.29-.38.87-.47,2-1.07,2.69-.8-.08-1.21-.92-1.7-1.61a10.52,10.52,0,0,1-2.07-3.14c-.45-1.54-.29-3.29-.45-5.29,0-.38.38-.41.45-.72a18.1,18.1,0,0,1,1.35-5.84c1-.84,1.7-1.89,2.6-2.78s2.06-1.33,2.78-2.33c2.9-1.29,5.41-3,8.34-4.39a42.91,42.91,0,0,0,8-4.67,37.26,37.26,0,0,0,3.5-4.57,20.92,20.92,0,0,0,2-6,8.11,8.11,0,0,0,0-2.15,24.62,24.62,0,0,0-1.26-5.48,30.91,30.91,0,0,1,.1,6.91c-.62,7.12-5.7,11-10.5,14.08-2.44,1.56-5.31,2.83-8.07,4.22s-6,2.46-7.81,4.39a18.53,18.53,0,0,0-3.14,5.83,12.62,12.62,0,0,0-.18,2.25,9.13,9.13,0,0,0-.27,2.15c.25,3.13,1.13,7.11,2.87,9.15.65.76,1.55,1,2.25,1.71-1,1.43-3.32,1.38-4.76.27s-1.81-3.06-2.51-4.32a7.29,7.29,0,0,0,1.16,3.51c1.11,1.6,2.92,3.58,5.21,2.6,3.25-1.4,5.42-4.63,6.1-9.15.15-1,.19-2,.36-3,.34-2.08.12-3.85.54-5.92a27.19,27.19,0,0,1,.53,3.94c.19,1.21.6,2.46.72,3.68a28,28,0,0,1-.18,8.16,11,11,0,0,1-2.42,4.22,8.36,8.36,0,0,1-.9.45,17,17,0,0,1-4.57,1.61,5.51,5.51,0,0,1-1.88-.09c-6.45-1.47-7.32-13.69-5.21-20.18-1.34,1.5-3.2,3.26-3.77,5.83.4-11.62,8.18-16.63,16.87-20.27A41.86,41.86,0,0,0,92.58,204a34.69,34.69,0,0,1,5.2-3.86c3.37-2.11,8.17-3.28,12.74-4.75a65.43,65.43,0,0,0,6.64-2.15c.54-.26,1.06-.69,1.61-1s1.23-.49,1.71-.81a11.32,11.32,0,0,0,1.88-1.79,18.34,18.34,0,0,0,2.24-4,16.65,16.65,0,0,1-5.11,4.84c-2,1.19-3.68,2.88-6.73,2.43a11.47,11.47,0,0,1,3.14-1.35,23.69,23.69,0,0,0,3.86-2,28,28,0,0,0,3.58-4.85c-2.87,2.87-6.82,5.92-12.64,5.83a28,28,0,0,0,8.88-4,13.07,13.07,0,0,0,3.86-4,8.92,8.92,0,0,0,.53-2c.41-1.46,1.28-3.37.72-5.29a12.65,12.65,0,0,0-2.15-4.31c-.81-.93-3-2.51-4.76-2.24-.68.1-.82.8-1.34.89.67-1.56.73-2.63,1.7-3.85.9.72,1.84,1.39,2.69,2.15,2.64.15,3.74,1.83,5,3.32a58.2,58.2,0,0,0-4-7.18c-.91-1.09-2-2.05-3-3.05s-1.8-2.2-2.87-3.14c.6,1.52,1.51,2.75,2.15,4.22-.78.13-.91-.4-1.52-.45a19.44,19.44,0,0,0-2.7-2.42,46.81,46.81,0,0,1-6.63-11.58c-.61-1.42-1.31-2.81-1.88-4.21a19.27,19.27,0,0,1-.54-3.05c-.43-1.82-1.84-3-3-4.22-2.07-2-3.47-5.33-5.48-7.35,0-.28.2-.35,0-.54-1.69-2.84-2.9-7.39-1.61-11.21a31.15,31.15,0,0,0,1.79,6.28c1.16-.61,2-2,2.88-2.6.39,2.62.54,6,1.25,8.34.12.38.39.68.54,1.08a11.58,11.58,0,0,0,.72,2.06,10.78,10.78,0,0,0,3.59,3.14c1.22.79,2.45,2.06,4.3,1.88,1.1-3.72.75-8.12.45-12.29-.93,2.59-.65,5.88-1.35,8.62-.71-.64-1.11-1.58-1.79-2.25-.12-1.32-1.14-2-1.7-3.23a15.77,15.77,0,0,1-1.08-5.2,16.6,16.6,0,0,1,1.62-8.25c1.3,3.56,2.53,7.21,5.11,9.51,1.46-.75,2.28-2.38,3.22-3.77a19.64,19.64,0,0,0,3.23-5.92c.33-.07.5.22.72,0a26.51,26.51,0,0,0,4-3.86,37.91,37.91,0,0,0,2.42-3.77,26.69,26.69,0,0,0,3.14-7.08c1.35,2.75,2.38,5.8,5.11,7.17,1.79-2,2.87-5.06,4-7.35a9.59,9.59,0,0,1,2.42,2.06c.79.71,1.66,1.32,2.42,2.06a37.48,37.48,0,0,0,5-5.2c.88.83,1.16,3.2,1.43,4a13.86,13.86,0,0,0,2.51,4.39c.42-.16.58-.59.81-.89s.66-.58.81-.81.27-1.11,1.07-1.26c.49-.75,1-1.48,1.44-2.24,2.39,4.1,4.11,8.87,8.52,10.94a60.31,60.31,0,0,0,5.3,8.35,7.15,7.15,0,0,1,1.61,2.33c.26-.06.83.23.63.72.51-.22.69.6,1.16.72,1.05-.56,1.7-2,2.34-3.14.39-.72.67-1.2,1.07-2.07a13.56,13.56,0,0,0,1-4.84c2.57.5,3.13,4.43,2.06,7.26-.36,1-1,1.91-1.34,3-1,2.92-2.19,7.24-4,9,.54-2.74-1-6-.9-8.88-.63.19-.35,1-.36,1.44a112.23,112.23,0,0,0,.54,11.66c4-1.9,5.78-4.88,8.34-8.16a39.44,39.44,0,0,0,2.51-8.34,12.53,12.53,0,0,0,1.8,2.42c.77-2.65,1.23-5.6,2.15-8.08.54,3.1,1,6,.27,8.53a22.39,22.39,0,0,1-1.17,2.51c-.37.9-.53,1.93-.89,2.69C184.74,131.56,182.88,133.05,181.83,134.73Zm4.85,14.89a16.83,16.83,0,0,1-3.68-6.73c-.47-1.93-.91-3.86.27-5.38,1,.6,2,1.1,3,1.62a20.1,20.1,0,0,0,.46,10.49C186.74,149.72,186.68,149.67,186.68,149.62Zm4.75,2.42c-.39.26-1.38-.4-2-.54-1.39-1.93-2-4.67-2.6-7.17a11,11,0,0,1-.08-4.93,22.09,22.09,0,0,0,3,1.25c.53,3.35.68,7.24,1.43,10.76C191.33,151.79,191.54,151.72,191.43,152Zm7,1.79a13.75,13.75,0,0,1-2.42-1.61c-1.74-1.79-2.22-3.89-3.22-6.46a21.34,21.34,0,0,1-1.53-4.3v-.27c1.61.54,3.77.53,5.47,1a32.55,32.55,0,0,0,1.35,8.07c.81,2.24,2.7,3.67,3.77,5.47A15.94,15.94,0,0,1,198.42,153.83Zm3.32-8.07c-.61,4.34,1.67,7.05,3.14,9.51-.06.57.27,1.23.19,1.53-1.32.16-2.28-2-3.06-2.87-2.58-3.07-4-7.33-4.75-11.85a15,15,0,0,0,6.1-.53h.18c.55,2.95,1.57,6.37,1.26,9.6a22,22,0,0,1,.62,3,15.58,15.58,0,0,1-2.87-5.3c-.45-1.35-.9-2.39-.54-3.68C201.81,145.23,201.76,145.67,201.74,145.76Zm2.61-4.39c.23-.37.81-.39,1.25-.54-.36-.45-1.12-.5-1.52-.9a2.9,2.9,0,0,0-.36-1.34,34.93,34.93,0,0,0,6.19-.45,55.74,55.74,0,0,0,4,11c.09.24.46.19.53.45a19.24,19.24,0,0,0,6.28,7.26C211.15,156.21,205.91,150.39,204.35,141.37Zm17.94,14.8a24.33,24.33,0,0,1-3.14-2.51c-.38-.43-.64-1.12-1.08-1.62a38.46,38.46,0,0,1-4.75-7.17,28.68,28.68,0,0,1-2.51-6.82,16.94,16.94,0,0,0,2.77-1.35c.08,0,.09,0,.1.09.72,2.23,2,4.3,2.69,6.55,1.56,5.07,4.46,9.18,6.9,13.46C222.89,156.85,222.62,156.42,222.29,156.17Zm3.5-4.67c-5.68-3.22-8.6-9-11.22-15.15,1.14-1,2.56-1.7,3.41-3-1.26-.14-3,.14-4.3-.18.1-.56.79-.5,1.17-.63,1.2-.41,2.43-1.17,3.67-1.62,0,.82.79,1.33.63,2.07.07.16.09-.05.08-.18,4.16,8.31,8.36,16.58,15.53,21.88A28,28,0,0,1,225.79,151.5Zm-4.94-17.13c-.12-1.36-1.11-2.5-1.62-3.77a4.33,4.33,0,0,1,1.08-.8c.63,2,1.87,3.22,3.05,4.84A20.19,20.19,0,0,0,225,136.7c1.24,1.3,2.29,2.72,3.41,4,.43.47,1,.82,1.43,1.34,1.3,1.76,2,3.74,3.14,5.56a40.1,40.1,0,0,1,3,5.66C229.55,148.34,224.72,141.83,220.85,134.37Zm24.67,12.38a26,26,0,0,1-6.82-1.35,21.53,21.53,0,0,1-2.69-1.07,24.7,24.7,0,0,1-4.75-2.78,33.75,33.75,0,0,1-2.42-2.7c-.86-.84-1.86-1.58-2.7-2.42-1.49-1.49-2.53-3.41-3.85-5a6.72,6.72,0,0,1-1.44-1.79c.63-.87,1.8-1.2,2.25-2.25-1.93-1.27-4.93-1.47-7.36-2.24,1.61.11,2.89-.54,4.39-.27.73.13,1.29,1.41,2.34,1.26,3.34,3,6.05,6.63,9.32,9.69.8.74,1.76,1.39,2.61,2.15a23.71,23.71,0,0,0,2.6,2.15c1.87,1.25,4,2.09,5.92,3.5,2.61.68,4.57,2,6.91,3A19,19,0,0,1,245.52,146.75Zm12.29-7.8c-1.05.59-2.72.4-3.95.26-3.32-.38-6.8-2-9.5-2.69-2.23-1.45-5-2.36-6.91-3.85a5.1,5.1,0,0,1-1.79-.9,29.32,29.32,0,0,1-3-1.88c-.68-.56-1.25-1.23-2-1.89a37.56,37.56,0,0,1-4.93-5c-.36-.46-.92-.9-.9-1.34,0-.67,1-1.1,1-1.62,1.8,1.2,3.23,3,5,4.3a29.83,29.83,0,0,1,2.6,1.62c1.06.94,4.14,2.8,5.74,3.86A68.57,68.57,0,0,0,257.81,139Zm-8-11.31a60.39,60.39,0,0,1-7-2.15c-2.3-.78-4.6-1.59-6.64-2.42-3.31-1.36-5.86-3.77-8.79-5.29.53-.7,1-1.49,1.53-2.16a67.62,67.62,0,0,0,8.52,4.23,29.2,29.2,0,0,0,3.94,1.52c2.51.63,4.59,1.49,7,2.24,5.59,1.74,11.52,4.07,18.21,4.66A57.21,57.21,0,0,1,249.83,127.64Zm8.52-6.45c.66.35,1.39.56,1.88.89.31.22.5.59.81.81,1,.74,2.32,1.17,3.41,1.8a22.44,22.44,0,0,0,3.14,2c-7.18-.58-13.75-3-20.1-4.76a80.71,80.71,0,0,1-18.21-6.9c.24-.64.57-1.65,1-1.8,2.87,1.1,5.33,2.57,8.34,3.32,1.07.27,2.32.34,3.5.63a21,21,0,0,0,3.32.8c1.09.1,2.31,0,3.5.1a23.69,23.69,0,0,1,3.76.26,13.77,13.77,0,0,1,2,.9C256,119.83,257.08,120.51,258.35,121.19Zm-6.73-5c-2.11,0-4.44-.2-6.64-.27a26.62,26.62,0,0,1-5.74-.53c-2.85-.8-5.52-1.63-8.07-2.61-.45-.09.18-.18-.09-.44-1.27.34-2.33-.68-3.5-1-.23-.24.19-.48.36-.72a12.36,12.36,0,0,1,1.88-2.42c1.21.59,2.76.83,3.77,1.62,6.47,1.12,13.83,3,21.71,2.59a41.84,41.84,0,0,0,9.15-1.7,20.9,20.9,0,0,0,7.53-3.5A26.6,26.6,0,0,1,251.62,116.16Zm16.86-9.5c-3.87,2.19-8.7,3.23-13.54,3.76A60.15,60.15,0,0,1,239.6,110c0,.11-.44.11-.18,0a49.39,49.39,0,0,1-9.69-2.24c.28-1.36.89-2.4,1.26-3.68a4.44,4.44,0,0,1,1.7.72,77.75,77.75,0,0,0,10.5,1.53c3.69.18,8.45-.66,11.66-.63,2.17,0,4.36.57,6.64.72S266,106.57,268.48,106.66Zm7.9-12.56a24.74,24.74,0,0,1-3.05,2,66.3,66.3,0,0,1-8.26,4.22,42.48,42.48,0,0,1-5.29,2.06,95.86,95.86,0,0,1-10.67,2c-3.62.47-7.76.87-10.94.36a35.39,35.39,0,0,1-6.91-1.08c.42-1.49,1-2.83,1.34-4.39,7.76,1.91,18.62.7,26.82-1.26l4.94-1.16c4.19-1,8.82-2.9,13.36-4.31A5.28,5.28,0,0,1,276.38,94.1Z"/><path class="cls-1" d="M230.27,198.06c.27-.65.51-1.34,1.25-1.53a3.28,3.28,0,0,1,.1-1h-.27c-.2.68-1,1.26-1.71,1.7a10.43,10.43,0,0,1-5.47-1.43C225.49,197.25,227.49,198.91,230.27,198.06Z"/><path class="cls-1" d="M201,44.22a1.73,1.73,0,0,0-1-.8,13,13,0,0,0-3,3.76C198.32,46.24,200.35,45.52,201,44.22Z"/><path class="cls-1" d="M167.66,142.35c-.3.06,0,.69-.36.72-.27.18-.85.05-1.26.09-.14-.24.08-.47-.17-.72-1.31-.32-2.94.23-4.22-.09a30.2,30.2,0,0,0-1.17-6.18c.42-.73.11-1.54,0-2.6-.13-1.3.05-2-1.07-2.07a16.91,16.91,0,0,0-3.33,5c-.12.35.41,0,.28.36-.14.17-.36-.12-.54.09-1.2,1.41-2.17,3-3.32,4.49a5.29,5.29,0,0,1-1.62.26c-.33-2.21-.77-4.14-.18-6.27-.37-.53-.11-1.24-.26-1.88-.06-.28-.28-.43-.28-.72,0-.49.43-.93.45-1.35.07-1.53-1.28-2.23-1.7-3.77-.48-.18-1.11-.2-1.17-.8a2.91,2.91,0,0,1,2.07-.63,4.51,4.51,0,0,1,1.61-1c-.06-.33.11-.43.09-.72.6-.18.78-.77,1.44-.89a11.94,11.94,0,0,0,1.79-7.54c-.16-1.51-.94-2.73-1.26-4a9.54,9.54,0,0,0-4.3-2.24,11.2,11.2,0,0,0-3.59-.81c-5.31,0-9.84-.29-14.89.19-.49-.77-1.91-.35-2.69-.36-1.09,2-1.13,5-1.88,7.35-.22.26.35.31.18.81-.43,1.35-1.32,2.63-1,4.22-1,1.37-1,3.35-1.35,5.2-.33,1.61-1.13,3-1.08,4.66-.08.44.38.34.36.72-1.77,2.23-1.85,6.16-2.86,9.15,1,1.25,3.66,1.23,5.29.54,1.19,0,2.47.68,3.32.27a9.58,9.58,0,0,0,.44-3.77c1.18-1,1-3.22,1.44-5,.27-1.14.83-2,1-3.05,2.12-.22,4.18,0,6.28-.18.14,0-.55-.47-.27-.63.31.07.44.33.72.45,1.21-.28,2.22,1.27,3,1.79-.57.61.05,2,.17,3.14s-.14,2,0,2.87a7,7,0,0,0,.27,5.74c.2.33.9.66,1.17,1.08.1.15,0,.33.09.44,1.43,1.61,3.52,2.78,4.57,4.49-1.37,4-3.68,7.09-4.75,11.12,3.39-1.36,6.41-3.1,10.31-3.94.42-.64,1.34-.77,2-1.17,1.2.76,2.33,2.5,3.77,2.87.23.06.43-.08.62,0,1.34.57,2.33,2.1,3.86,2.24.33-.41-.11-.71-.18-1.16-.09-.62,0-1.25,0-1.89-.15-2.49-1-5-.36-7.26a79.43,79.43,0,0,1,9.33-6.19c.17-.16.11-.55.36-.63.34-.26.94-.26,1.08-.72A35.19,35.19,0,0,0,167.66,142.35Zm-22.61-19.64a14.86,14.86,0,0,1-2,1.17c-1.18.48-2.32-.08-3.77-.09-2,0-4.16.44-5.92.09a4.69,4.69,0,0,0-.45-1.26c.53-1.82,1.43-3.69,1.35-5.83a4.41,4.41,0,0,1,.9-1.07,22,22,0,0,1,6.18,0,11.71,11.71,0,0,1,2.25.17c1.2.4,1.79,1.35,2.69,1.71a3.61,3.61,0,0,1-.45,3.59A12.33,12.33,0,0,1,145.05,122.71Zm17.13,31.66a.8.8,0,0,1-.18-.89c.15,0,.16.08.28.08C162.26,153.85,162.34,154.23,162.18,154.37Zm-1.34-5.56c0,.28-.24.24-.27.45a60.16,60.16,0,0,0,.9,8.25c-2.09-1.65-4.51-3.65-6.82-5.38-.18.17,0,.43,0,.63-2.62,1.4-5.1,2.74-7.8,4.22a50.79,50.79,0,0,1,3.67-7.45c-1-2.23-3.32-3.19-4.57-5.2,2.85-.11,5.12-.07,7.81-.27.53-1,1.26-2.14,2-3.32.45-.75,1.16-2.08,1.34-2.33s.12-.35.27-.18a2.87,2.87,0,0,1,1.08-1.61c.63,2.47.91,5.3,1.43,7.88,2.31-.38,5.27.1,7,.18C164.55,145.76,163.3,147.89,160.84,148.81Z"/><path class="cls-1" d="M117.78,12.92a4.3,4.3,0,0,0,1.89,6.36c.78.38,1.87.51,2,1.35.07.61-.49,1.12-.36,1.7.08.33.27.29.54.72.29,2.79-.79,5.54.54,7.62A4.16,4.16,0,0,0,124,32,6.46,6.46,0,0,0,126,33a8.24,8.24,0,0,0,1.07-.18,12.87,12.87,0,0,1,1.62.09c4.8.21,9.48-.09,14.17-.09s9.27,0,13.18.18a2.47,2.47,0,0,1,1.35.27c.95-.22,1.9-1.08,2.69-.9.24-.7,1-.77,1.53-1.26.64-.64.66-1.66,1.25-2.42-.45-.31-.24-1.15-.27-2a24.9,24.9,0,0,1-.17-3.14,4.31,4.31,0,0,0,.35-4.58,3.86,3.86,0,0,0,3.68-5.47c3-3.64,7.25-6.5,9.78-10.31-3.08,1.38-6.39,3-9.78,4.3-1.06.41-2.5,1.32-3.41,1.35a6.32,6.32,0,0,1-1.16-.27,5.09,5.09,0,0,0-4.75,1.7c-.87-1.74-2.25-3.35-4.58-3.4C151,6.87,150,8.18,149,8.79c-.26-1.69-1.49-2.4-3-2.87A24.44,24.44,0,0,0,142.72,0c-1.86,1.57-2.88,4-4,6.28a5.06,5.06,0,0,0-3.76,1.79c-2.5-2.14-7.14-.53-7.9,2.24a4.78,4.78,0,0,0-4.48-.71c-5-2-10.11-4.43-14.71-6.55C110.48,7,114.34,9.76,117.78,12.92Zm7.54,17.48a5.74,5.74,0,0,1-.18-2.15c.85,1.42,3.82,1.44,4.93.27a6.31,6.31,0,0,1,.27,2.07A26.21,26.21,0,0,1,125.32,30.4Zm3.49-2.59A2.8,2.8,0,0,1,125.32,25a3.12,3.12,0,0,1,1.89-2.43C131,21.44,131.51,27.15,128.81,27.81Zm8.53,2.86c-1.66.14-2.8.07-4.49.19,0-.52.19-1.4.09-2.25,1.45.7,3.47.44,4.31-.63A7.61,7.61,0,0,1,137.34,30.67Zm.09-4.93c-.26.6-1,1.66-1.89,1.8-3.16.46-4.36-4.5-.89-5C136.56,22.22,138.24,23.84,137.43,25.74Zm7,4.93c-1.5-.08-3-.11-4.66-.08a8.46,8.46,0,0,1,0-2.61c1.09.7,3.66,1,4.58-.09C144.85,28.47,144.59,30.16,144.42,30.67ZM139.94,23a3.72,3.72,0,0,1,4.4,0c.07.65.65,1.13.62,1.8a3,3,0,0,1-2.33,2.42C140.46,27.35,138.46,25.18,139.94,23Zm11.75,7.63c-1.44-.3-3.64.16-4.93-.27a16.61,16.61,0,0,1,0-2.34A5.42,5.42,0,0,0,149,29c1.11.08,1.74-.75,2.6-1.08v-.27A5.48,5.48,0,0,1,151.69,30.59Zm-4.84-6.82a2.65,2.65,0,0,1,2.33-1.44c4-.16,3.21,5.37-.45,4.94A2.69,2.69,0,0,1,146.85,23.77Zm11.93,6.55a19.19,19.19,0,0,1-4.67,0c.21-.82-.07-1.18-.08-2.34,1.06.56,4.16.78,4.66-.26A13.6,13.6,0,0,1,158.78,30.32ZM154.11,24c.64-1.95,3.84-2.07,4.75-.18C160.21,28.32,152.76,28.19,154.11,24ZM159.67,30c-.69-2.22.69-6.23-1.16-7.53-.77-.12-1.4-.66-2.51-.54a3.75,3.75,0,0,0-2.61,1.88c-.92,1.81.67,4.78-.26,6.82h-.81c.13-1.17-.22-2.27-.18-3.41s.48-2.18.09-3.41c-.56-1.76-2.64-2.38-4.49-1.61a6,6,0,0,0-2.06,2.33c-.21.89.32,1.65.45,2.51s.25,3.75-.54,3.67-.66-3.45-.63-3.94c.17-2.08.55-4-1.25-4.67-2.35-.87-5.44.39-5.39,3.41,0,.62.36,1,.45,1.53a18.37,18.37,0,0,1,.1,3.59c-.37,0-.51.16-.9.08.08-1.5-.13-2.66-.09-3.94a11.09,11.09,0,0,0,.09-3c-.57-2.31-5.19-2-6.1-.18-1.06,2.11.68,4.93,0,7.08-1.45.15-.72-2.56-.72-3.67,0-2.11-.47-3.81-1.35-4.67a5.92,5.92,0,0,0-3.76-.08c-2.48,1-1.42,4.83-1.62,7.62-1.93-.95-.66-6.49-1-8.43.79.08,1.49-.21,1.88.18,2.5-1,5.68-.31,9-.45,1.41-.07,2.81-.07,4.31,0,6.19.28,13-.37,18.12,0,.76,0,1.53.47,2.24.45s1.2-.36,2-.18C160.27,23.47,161.38,28.16,159.67,30Zm-.45-9.6c-2.23-.21-4.83.05-7.62,0-5.15-.09-10.63-.14-16.06.09-3,.13-6.13-.2-9.15,0-1.13.07-2.59.65-3.67-.09.38-1.67,3-1.28,4.57-1.35,6.11-.24,11.38-.3,16.42-.17,1.1,0,2.22.18,3.23.17.83,0,1.71-.21,2.51-.17s1.85.17,2.06.17c2.08,0,5.14-.05,8.08.18.83.07,2,0,2,1.08C160.92,21.06,160,20.43,159.22,20.36Zm-2.6-6c.31.5.47,1.15,1,1.43a1.55,1.55,0,0,1-1,1.17,2.12,2.12,0,0,1-1.07-1.52C155.81,15,156.46,14.91,156.62,14.35Zm-1.25-3.94a5,5,0,0,1,0,2.68c-.2.47-.91.76-1.08,1.44a3.67,3.67,0,0,0,1,3.14c1.64,1.09,3.4-.51,3.94-1.61-2.71-1.89-1.35-6.61,3.15-5.65-.33.26-1,.23-1.26.53,1.46.45,2.35-.51,3.68-1.16,2.25-1.12,4.85-2.22,7-3.41-1.91,2.21-5,4-7.44,6,.23.95.8,1.14,1,2.15.51,2.82-2.78,3.85-5.11,2.69a1.46,1.46,0,0,1,.18,1.26c-2.92-.1-5.84-.21-8.79-.27a4.94,4.94,0,0,0,.09-2.78,12,12,0,0,1-1.17,2.78h-.8c-.2-.46.72-.84,1-1.52s.06-1.58.36-2.34a4.47,4.47,0,0,1-1.16-3C150,8.36,154.33,8.05,155.37,10.41Zm-6.28,3.13a1.17,1.17,0,0,0,.81,1c-.28,1.1-.62,2.13-1.61,2.51-.94-.2-1.73-.55-1.89-1.52-.08-.32.29-.15.36-.09s0-.09-.09-.09A4.21,4.21,0,0,0,149.09,13.54Zm-12.56-4.3c.91-.58,2-1.79,3.5-1.17.53-.38.35-1.08.45-1.61a12.15,12.15,0,0,1,1.79-3.95c1.51.62,1.67,3.91,2.51,5.38,1.52.28,3,1.07,3.23,2.42a3.78,3.78,0,0,1-3.14,4.4c.26,1.57.82,2.83,2.07,3.41-1.82.21-4,0-6,.09a11.06,11.06,0,0,0,.36-2.69,26.52,26.52,0,0,0-1.44,2.69h-1.17a5.1,5.1,0,0,0,1.53-3.14A4,4,0,0,1,136.53,9.24Zm-1,5a11.87,11.87,0,0,0,3,1.17c0,.15-.15.2-.35.18.46,2.27-3,1.62-3.5.09A2.29,2.29,0,0,1,135.54,14.26Zm-7.62.54c.62.31,1.28.57,1.88.9.3,1.51-1.64,1.49-2.06.62A4.17,4.17,0,0,0,127.92,14.8Zm-6-3.68c2.73-.88,4.86.27,4.57,3.32,0,.39-.38.87-.35,1.34A3,3,0,0,0,128.81,18a2.85,2.85,0,0,0,2.79-2.87c-1.74-.33-3.78-1.26-3.41-3.77a3.72,3.72,0,0,1,5.2-2.33c2,1.17,1.2,4.82-.54,6,0,1.64,1.31,2.62,2.78,3.05a32.22,32.22,0,0,1-3.85.09,3.89,3.89,0,0,0,.09-2.24,4.24,4.24,0,0,1-1.26,2.33c-2.34.15-4.62-.1-6.73.09-.33-.07,0-.27-.18-.45-4.07,1.25-6-3.45-3.85-6.1q-3.16-2.27-6.19-4.67C116.3,8.24,119.63,9.39,121.91,11.12Z"/><path class="cls-1" d="M162.9,16a6.24,6.24,0,0,1-4.48-3.33,4.21,4.21,0,0,0-.09,1.53C158.67,15.81,161.47,17.05,162.9,16Z"/><path class="cls-1" d="M153.13,13.81a2.45,2.45,0,0,0,1.61-1.25c-.52.1-.7.55-1.26.63-1.28-.27-2.61-1.16-2.06-2.7C149.47,11.68,151.05,14.08,153.13,13.81Z"/><path class="cls-1" d="M146.85,11.93a3.19,3.19,0,0,1-3.23.81c-.62-.22-.79-.84-1.26-1C142.65,14.43,146.48,13.82,146.85,11.93Z"/><path class="cls-1" d="M140.21,13.9c-1.56-.84-3.17-2.07-3.23-4.12C136,12.13,137.84,14.65,140.21,13.9Z"/><path class="cls-1" d="M132.94,13.45a2.34,2.34,0,0,1-3.23-2.15c0-.59.41-1.33.36-1.61-2.47,1-1.12,5.38,1.8,4.66C132.34,14.24,132.49,13.77,132.94,13.45Z"/><path class="cls-1" d="M124.24,17.22a1.64,1.64,0,0,0,.9-1.35c-1.67,1-4.16-.18-4.31-1.88-.06-.68.47-1.11.27-1.88C118.41,14.07,120.9,18.75,124.24,17.22Z"/><path class="cls-1" d="M82.44,44.4c1.38.6,2.48,1.94,3.86,2.24A18.74,18.74,0,0,0,83.7,43C83.26,43.38,82.41,43.82,82.44,44.4Z"/><path class="cls-1" d="M50.78,197.16a20.3,20.3,0,0,1-1.88-1.7,3.37,3.37,0,0,1,.08,1c.75.17,1,.87,1.26,1.52,2.78.86,4.78-.81,6.1-2.24A10.41,10.41,0,0,1,50.78,197.16Z"/></svg>